<svg width="20.012695" height="17.806641" viewBox="0 0 20.0127 17.8066" fill="none" xmlns="http://www.w3.org/2000/svg" xmlns:xlink="http://www.w3.org/1999/xlink">
	<desc>
			Created with Pixso.
	</desc>
	<defs/>
	<path id="01" d="M-0.000398636 8.83008Q-0.000398636 4.67578 1.39999 2.33789Q2.80624 0 6.23984 0Q9.66757 0 11.0738 2.33789Q12.4801 4.67578 12.4801 8.83008Q12.4801 13.0312 11.0738 15.3984Q9.66757 17.7598 6.23984 17.7598Q2.80624 17.7598 1.39999 15.3984Q-0.000398636 13.0312 -0.000398636 8.83008ZM9.79062 8.83008Q9.79062 6.88477 9.53866 5.54297Q9.28671 4.20117 8.51913 3.35156Q7.75155 2.49609 6.23984 2.49609Q4.72812 2.49609 3.96054 3.35156Q3.19296 4.20117 2.94101 5.54297Q2.68905 6.88477 2.68905 8.83008Q2.68905 10.8457 2.92343 12.2168Q3.16366 13.582 3.94296 14.4258Q4.72812 15.2637 6.23984 15.2637Q7.75155 15.2637 8.53085 14.4258Q9.31015 13.582 9.55038 12.2168Q9.79062 10.8457 9.79062 8.83008ZM15.0203 2.80664L15.0203 0.310547L20.0125 0.310547L20.0125 17.8066L17.2527 17.8066L17.2527 2.80664L15.0203 2.80664Z" fill="#2405F2" fill-opacity="1.000000" fill-rule="evenodd"/>
</svg>
