<svg width="26.833008" height="17.806641" viewBox="0 0 26.833 17.8066" fill="none" xmlns="http://www.w3.org/2000/svg" xmlns:xlink="http://www.w3.org/1999/xlink">
	<desc>
			Created with Pixso.
	</desc>
	<defs/>
	<path id="02" d="M0.000210762 8.87695Q0.000210762 4.72266 1.4006 2.38477Q2.80685 0.046875 6.24045 0.046875Q9.66818 0.046875 11.0744 2.38477Q12.4807 4.72266 12.4807 8.87695Q12.4807 13.0781 11.0744 15.4453Q9.66818 17.8066 6.24045 17.8066Q2.80685 17.8066 1.4006 15.4453Q0.000210762 13.0781 0.000210762 8.87695ZM9.79123 8.87695Q9.79123 6.93164 9.53927 5.58984Q9.28732 4.24805 8.51974 3.39844Q7.75216 2.54297 6.24045 2.54297Q4.72873 2.54297 3.96115 3.39844Q3.19357 4.24805 2.94162 5.58984Q2.68966 6.93164 2.68966 8.87695Q2.68966 10.8926 2.92404 12.2637Q3.16427 13.6289 3.94357 14.4727Q4.72873 15.3105 6.24045 15.3105Q7.75216 15.3105 8.53146 14.4727Q9.31076 13.6289 9.55099 12.2637Q9.79123 10.8926 9.79123 8.87695ZM16.8959 14.1328Q19.1987 12.1406 20.5287 10.8574Q21.8647 9.57422 22.7494 8.18555Q23.6401 6.79102 23.6401 5.39648Q23.6401 3.95508 22.9545 3.14062Q22.269 2.32617 20.8041 2.32617Q19.392 2.32617 18.6127 3.22852Q17.8334 4.125 17.7807 5.63672L15.144 5.63672Q15.2143 2.90039 16.7846 1.45312Q18.3608 0 20.7807 0Q23.3998 0 24.8764 1.44141Q26.353 2.87695 26.353 5.2793Q26.353 7.00781 25.4741 8.60156Q24.601 10.1953 23.3881 11.4551Q22.1752 12.7148 20.3002 14.373L19.2221 15.334L26.8334 15.334L26.8334 17.6133L15.1674 17.6133L15.1674 15.6211L16.8959 14.1328Z" fill="#2405F2" fill-opacity="1.000000" fill-rule="evenodd"/>
</svg>
