<svg width="26.757812" height="18.000000" viewBox="0 0 26.7578 18" fill="none" xmlns="http://www.w3.org/2000/svg" xmlns:xlink="http://www.w3.org/1999/xlink">
	<desc>
			Created with Pixso.
	</desc>
	<defs/>
	<path id="03" d="M0.000312805 8.92969Q0.000312805 4.77539 1.4007 2.4375Q2.80695 0.0996094 6.24055 0.0996094Q9.66828 0.0996094 11.0745 2.4375Q12.4808 4.77539 12.4808 8.92969Q12.4808 13.1309 11.0745 15.498Q9.66828 17.8594 6.24055 17.8594Q2.80695 17.8594 1.4007 15.498Q0.000312805 13.1309 0.000312805 8.92969ZM9.79133 8.92969Q9.79133 6.98438 9.53938 5.64258Q9.28742 4.30078 8.51984 3.45117Q7.75227 2.5957 6.24055 2.5957Q4.72883 2.5957 3.96125 3.45117Q3.19367 4.30078 2.94172 5.64258Q2.68977 6.98438 2.68977 8.92969Q2.68977 10.9453 2.92414 12.3164Q3.16438 13.6816 3.94367 14.5254Q4.72883 15.3633 6.24055 15.3633Q7.75227 15.3633 8.53156 14.5254Q9.31086 13.6816 9.55109 12.3164Q9.79133 10.9453 9.79133 8.92969ZM15.3374 4.72852Q15.4781 2.49609 17.0484 1.24805Q18.6245 0 21.0738 0Q22.7495 0 23.9742 0.603516Q25.1988 1.20117 25.8199 2.23242Q26.4468 3.26367 26.4468 4.56445Q26.4468 6.05273 25.6558 7.10742Q24.8648 8.16211 23.7574 8.51953L23.7574 8.61914Q25.1753 9.05273 25.9663 10.1953Q26.7574 11.332 26.7574 13.1074Q26.7574 14.5195 26.107 15.627Q25.4624 16.7285 24.191 17.3672Q22.9195 18 21.1441 18Q18.5484 18 16.8785 16.6699Q15.2144 15.3398 15.0972 12.8438L17.7339 12.8438Q17.8335 14.1152 18.7183 14.918Q19.6089 15.7207 21.1206 15.7207Q22.5855 15.7207 23.3765 14.918Q24.1675 14.1152 24.1675 12.8438Q24.1675 11.1621 23.0952 10.4531Q22.0288 9.74414 19.8257 9.74414L19.1988 9.74414L19.1988 7.48828L19.8492 7.48828Q21.7886 7.46484 22.8081 6.84375Q23.8335 6.2168 23.8335 4.875Q23.8335 3.7207 23.0894 3.04102Q22.3452 2.35547 20.9742 2.35547Q19.6324 2.35547 18.8882 3.04102Q18.1441 3.7207 17.9976 4.72852L15.3374 4.72852Z" fill="#2405F2" fill-opacity="1.000000" fill-rule="evenodd"/>
</svg>
