<svg width="28.655273" height="17.806641" viewBox="0 0 28.6553 17.8066" fill="none" xmlns="http://www.w3.org/2000/svg" xmlns:xlink="http://www.w3.org/1999/xlink">
	<desc>
			Created with Pixso.
	</desc>
	<defs/>
	<path id="04" d="M5.53131e-05 8.83008Q5.53131e-05 4.67578 1.40045 2.33789Q2.8067 0 6.24029 0Q9.66802 0 11.0743 2.33789Q12.4805 4.67578 12.4805 8.83008Q12.4805 13.0312 11.0743 15.3984Q9.66802 17.7598 6.24029 17.7598Q2.8067 17.7598 1.40045 15.3984Q5.53131e-05 13.0312 5.53131e-05 8.83008ZM9.79107 8.83008Q9.79107 6.88477 9.53912 5.54297Q9.28716 4.20117 8.51959 3.35156Q7.75201 2.49609 6.24029 2.49609Q4.72857 2.49609 3.96099 3.35156Q3.19341 4.20117 2.94146 5.54297Q2.68951 6.88477 2.68951 8.83008Q2.68951 10.8457 2.92388 12.2168Q3.16412 13.582 3.94341 14.4258Q4.72857 15.2637 6.24029 15.2637Q7.75201 15.2637 8.53131 14.4258Q9.3106 13.582 9.55084 12.2168Q9.79107 10.8457 9.79107 8.83008ZM15.0442 14.1562L15.0442 12.0938L23.1126 0.527344L26.4231 0.527344L26.4231 11.7832L28.6555 11.7832L28.6555 14.1562L26.4231 14.1562L26.4231 17.8066L23.7337 17.8066L23.7337 14.1562L15.0442 14.1562ZM23.8567 3.31055L18.1907 11.7832L23.8567 11.7832L23.8567 3.31055Z" fill="#2405F2" fill-opacity="1.000000" fill-rule="evenodd"/>
</svg>
