<svg width="27.865234" height="17.806641" viewBox="0 0 27.8652 17.8066" fill="none" xmlns="http://www.w3.org/2000/svg" xmlns:xlink="http://www.w3.org/1999/xlink">
	<desc>
			Created with Pixso.
	</desc>
	<defs/>
	<path id="05" d="M0.000350952 8.83008Q0.000350952 4.67578 1.40074 2.33789Q2.80699 0 6.24059 0Q9.66832 0 11.0746 2.33789Q12.4808 4.67578 12.4808 8.83008Q12.4808 13.0312 11.0746 15.3984Q9.66832 17.7598 6.24059 17.7598Q2.80699 17.7598 1.40074 15.3984Q0.000350952 13.0312 0.000350952 8.83008ZM9.79137 8.83008Q9.79137 6.88477 9.53941 5.54297Q9.28746 4.20117 8.51988 3.35156Q7.7523 2.49609 6.24059 2.49609Q4.72887 2.49609 3.96129 3.35156Q3.19371 4.20117 2.94176 5.54297Q2.6898 6.88477 2.6898 8.83008Q2.6898 10.8457 2.92418 12.2168Q3.16441 13.582 3.94371 14.4258Q4.72887 15.2637 6.24059 15.2637Q7.7523 15.2637 8.5316 14.4258Q9.3109 13.582 9.55113 12.2168Q9.79137 10.8457 9.79137 8.83008ZM26.6636 2.66016L18.6246 2.66016L18.6246 7.44141Q19.1285 6.76758 20.1246 6.31055Q21.1207 5.85352 22.2457 5.85352Q24.2613 5.85352 25.5211 6.7207Q26.7808 7.58203 27.3199 8.90625Q27.8648 10.2246 27.8648 11.6895Q27.8648 13.4648 27.1793 14.8477Q26.4937 16.2246 25.1343 17.0156Q23.7808 17.8066 21.8121 17.8066Q19.1988 17.8066 17.6109 16.5117Q16.0289 15.2168 15.7183 13.0781L18.3843 13.0781Q18.648 14.209 19.5562 14.8711Q20.4703 15.5273 21.8414 15.5273Q23.5406 15.5273 24.3902 14.4961Q25.2457 13.4648 25.2457 11.7598Q25.2457 10.0312 24.3785 9.11133Q23.5172 8.18555 21.8414 8.18555Q20.6636 8.18555 19.8551 8.77148Q19.0523 9.35742 18.6949 10.3652L16.1051 10.3652L16.1051 0.263672L26.6636 0.263672L26.6636 2.66016Z" fill="#2405F2" fill-opacity="1.000000" fill-rule="evenodd"/>
</svg>
