<svg width="32.000977" height="32.000000" viewBox="0 0 32.001 32" fill="none" xmlns="http://www.w3.org/2000/svg" xmlns:xlink="http://www.w3.org/1999/xlink">
	<desc>
			Created with Pixso.
	</desc>
	<defs/>
	<path id="Vector" d="M24.3447 5.46387C24.3447 4.71289 24.0518 4.00684 23.5205 3.47559L20.8691 0.824219C20.3457 0.300781 19.6016 0 18.8623 0L18.7012 0L18.7012 5.625L24.3447 5.625L24.3447 5.46387Z" fill="#2405F2" fill-opacity="1.000000" fill-rule="nonzero"/>
	<path id="Vector" d="M17.1211 19.3457C17.3008 18.8018 17.6133 18.2939 18.0215 17.8828L24.3691 11.5605L24.3691 7.5L17.7822 7.5C17.2637 7.5 16.875 7.08105 16.875 6.5625L16.875 0L2.8125 0C1.26172 0 0 1.26172 0 2.8125L0 29.1875C0 30.7383 1.26172 32 2.8125 32L21.5322 32C23.083 32 24.3691 30.7383 24.3691 29.1875L24.3691 22.1904L23.3389 23.1963C22.9219 23.6094 22.4326 23.9111 21.8818 24.0947L18.9004 25.0898L18.4463 25.1152C17.6963 25.1152 16.9854 24.749 16.5439 24.1377C16.1064 23.5293 15.9873 22.7402 16.2256 22.0264L17.1211 19.3457ZM4.6875 16.875L14.0322 16.875C14.5498 16.875 14.9697 17.2939 14.9697 17.8125C14.9697 18.3311 14.5498 18.75 14.0322 18.75L4.6875 18.75C4.16895 18.75 3.75 18.3311 3.75 17.8125C3.75 17.2939 4.16895 16.875 4.6875 16.875ZM3.75 14.0625C3.75 13.5439 4.16895 13.125 4.6875 13.125L14.0322 13.125C14.5498 13.125 14.9697 13.5439 14.9697 14.0625C14.9697 14.5811 14.5498 15 14.0322 15L4.6875 15C4.16895 15 3.75 14.5811 3.75 14.0625ZM3.75 21.5625C3.75 21.0439 4.16895 20.625 4.6875 20.625L14.0322 20.625C14.5498 20.625 14.9697 21.0439 14.9697 21.5625C14.9697 22.0811 14.5498 22.5 14.0322 22.5L4.6875 22.5C4.16895 22.5 3.75 22.0811 3.75 21.5625ZM17.7822 26.25C18.2998 26.25 18.7197 26.6689 18.7197 27.1875C18.7197 27.7061 18.3008 28.125 17.7822 28.125L12.1572 28.125C11.6387 28.125 11.2197 27.7061 11.2197 27.1875C11.2197 26.6689 11.6387 26.25 12.1572 26.25L17.7822 26.25ZM4.6875 11.25C4.16895 11.25 3.75 10.8311 3.75 10.3125C3.75 9.79395 4.16895 9.375 4.6875 9.375L17.7822 9.375C18.2998 9.375 18.7197 9.79395 18.7197 10.3125C18.7197 10.8311 18.2998 11.25 17.7822 11.25L4.6875 11.25Z" fill="#2405F2" fill-opacity="1.000000" fill-rule="nonzero"/>
	<path id="Vector" d="M18.8193 20.1758L18.0029 22.623C17.8809 22.9893 18.2295 23.3379 18.5967 23.2158L21.042 22.3984L18.8193 20.1758Z" fill="#2405F2" fill-opacity="1.000000" fill-rule="nonzero"/>
	<path id="Vector" d="M26.1006 12.457L19.9268 18.6309L22.5898 21.2939C23.9854 19.8984 26.7002 17.1826 28.7637 15.1191L26.1006 12.457Z" fill="#2405F2" fill-opacity="1.000000" fill-rule="nonzero"/>
	<path id="Vector" d="M31.4492 9.7666C31.1201 9.43555 30.6348 9.24609 30.1201 9.24609C29.6055 9.24609 29.1201 9.43555 28.7891 9.76758L27.4268 11.1299L30.0889 13.793C30.835 13.0469 31.3506 12.5312 31.4512 12.4307C32.1836 11.6973 32.1836 10.502 31.4492 9.7666Z" fill="#2405F2" fill-opacity="1.000000" fill-rule="nonzero"/>
</svg>
