<svg width="32.000000" height="32.000000" viewBox="0 0 32 32" fill="none" xmlns="http://www.w3.org/2000/svg" xmlns:xlink="http://www.w3.org/1999/xlink">
	<desc>
			Created with Pixso.
	</desc>
	<defs/>
	<path id="Vector" d="M8.11426 25.2119C7.74805 25.5781 7.74805 26.1719 8.11426 26.5381L10.5449 28.9688L7.78809 31.7256C7.42188 32.0918 6.82812 32.0918 6.46191 31.7256L0.274414 25.5381C-0.0917969 25.1719 -0.0917969 24.5781 0.274414 24.2129L24.2129 0.274414C24.5781 -0.0917969 25.1719 -0.0917969 25.5381 0.274414L31.7256 6.46191C31.9082 6.64453 32 6.88477 32 7.125C32 7.36426 31.9082 7.60449 31.7256 7.78809L28.9688 10.5449L25.6543 7.22949C25.2881 6.86328 24.6943 6.86328 24.3281 7.22949C23.9619 7.5957 23.9619 8.18945 24.3281 8.55566L27.6426 11.8701L25.5488 13.9639L23.1182 11.5332C22.752 11.167 22.1582 11.167 21.792 11.5332C21.4268 11.8994 21.4268 12.4932 21.792 12.8594L24.2227 15.29L22.1289 17.3838L18.8145 14.0693C18.4482 13.7031 17.8555 13.7031 17.4893 14.0693C17.123 14.4355 17.123 15.0293 17.4893 15.3955L20.8037 18.71L18.71 20.8037L16.2793 18.373C15.9131 18.0068 15.3193 18.0068 14.9531 18.373C14.5869 18.7393 14.5869 19.332 14.9531 19.6982L17.3838 22.1289L15.29 24.2236L11.9756 20.9082C11.6094 20.543 11.0156 20.543 10.6494 20.9082C10.2832 21.2744 10.2832 21.8682 10.6494 22.2344L13.9639 25.5488L11.8701 27.6426L9.43945 25.2119C9.07324 24.8457 8.47949 24.8457 8.11426 25.2119Z" fill="#2405F2" fill-opacity="1.000000" fill-rule="nonzero"/>
</svg>
