<svg width="16.000000" height="15.902344" viewBox="0 0 16 15.9023" fill="none" xmlns="http://www.w3.org/2000/svg" xmlns:xlink="http://www.w3.org/1999/xlink">
	<desc>
			Created with Pixso.
	</desc>
	<defs/>
	<path id="Vector" d="M16 8C16 3.58203 12.418 0 8 0C3.58203 0 0 3.58203 0 8C0 11.9932 2.92578 15.3027 6.75 15.9023L6.75 10.3125L4.71875 10.3125L4.71875 8L6.75 8L6.75 6.2373C6.75 4.23242 7.94434 3.125 9.77148 3.125C10.6465 3.125 11.5625 3.28125 11.5625 3.28125L11.5625 5.25L10.5537 5.25C9.55957 5.25 9.25 5.86719 9.25 6.5L9.25 8L11.4688 8L11.1143 10.3125L9.25 10.3125L9.25 15.9023C13.0742 15.3027 16 11.9932 16 8Z" fill="#282938" fill-opacity="1.000000" fill-rule="nonzero"/>
</svg>
