<svg width="190.000000" height="38.480957" viewBox="0 0 190 38.481" fill="none" xmlns="http://www.w3.org/2000/svg" xmlns:xlink="http://www.w3.org/1999/xlink">
	<desc>
			Created with Pixso.
	</desc>
	<defs>
		<clipPath id="clip1502_958">
			<rect id="finsweet-logo" width="190.000000" height="38.481014" fill="white" fill-opacity="0"/>
		</clipPath>
	</defs>
	<rect id="finsweet-logo" width="190.000000" height="38.481014" fill="#FFFFFF" fill-opacity="0"/>
	<g clip-path="url(#clip1502_958)">
		<path id="t" d="M189.663 29.3899L189.663 34.0918L185.719 34.0918C181.51 33.9595 179.261 31.6868 179.261 27.4177L179.261 16.6792L176.508 16.6792L176.508 12.5544L179.261 12.5544L179.261 7.93677L185.082 7.93677L185.082 12.5063L189.531 12.5063L189.531 16.6191L185.082 16.6191L185.082 26.8406C185.082 28.2234 185.358 29.3298 187.487 29.3298L189.663 29.3899Z" fill="#111111" fill-opacity="1.000000" fill-rule="nonzero"/>
		<path id="e" d="M153.311 23.3652L153.311 23.0527C153.248 21.6697 153.458 20.2876 153.931 18.9861C154.403 17.6846 155.127 16.489 156.062 15.468C156.997 14.447 158.125 13.6204 159.38 13.0359C160.635 12.4514 161.993 12.1201 163.376 12.0615C163.653 12.0615 163.941 12.0615 164.218 12.0615C169.713 12.0615 174.535 15.2603 174.535 22.8843L174.535 24.5078L159.263 24.5078C159.42 28.019 161.32 30.0032 164.518 30.0032C167.272 30.0032 168.559 28.8008 168.932 27.0452L174.427 27.0452C173.754 31.6267 170.098 34.176 164.314 34.176C157.965 34.1279 153.311 30.1116 153.311 23.3652ZM168.811 20.8279C168.607 17.6292 166.996 16.0901 164.194 16.0901C161.392 16.0901 159.78 17.8215 159.384 20.8279L168.811 20.8279Z" fill="#111111" fill-opacity="1.000000" fill-rule="nonzero"/>
		<path id="e" d="M129.549 23.3652L129.549 23.0527C129.486 21.6716 129.696 20.2915 130.166 18.9915C130.637 17.6914 131.359 16.4968 132.292 15.4761C133.224 14.4553 134.349 13.6284 135.601 13.0425C136.853 12.4565 138.209 12.1233 139.59 12.0615C139.867 12.0615 140.155 12.0615 140.432 12.0615C145.927 12.0615 150.761 15.2603 150.761 22.8843L150.761 24.5078L135.501 24.5078C135.658 28.019 137.558 30.0032 140.756 30.0032C143.51 30.0032 144.797 28.8008 145.17 27.0452L150.665 27.0452C149.98 31.6267 146.324 34.176 140.54 34.176C134.203 34.1279 129.549 30.1116 129.549 23.3652ZM145.049 20.8279C144.845 17.6292 143.234 16.0901 140.432 16.0901C137.63 16.0901 136.066 17.8696 135.622 20.8159L145.049 20.8279Z" fill="#111111" fill-opacity="1.000000" fill-rule="nonzero"/>
		<path id="w" d="M96.2025 12.5063L102.359 12.5063L106.123 26.7683L110.248 12.5063L115.058 12.5063L118.786 26.7683L122.754 12.5063L128.394 12.5063L121.708 33.6951L115.936 33.6951L112.328 20.395L108.468 33.6951L102.624 33.6951L96.2025 12.5063Z" fill="#111111" fill-opacity="1.000000" fill-rule="nonzero"/>
		<path id="s" d="M76.6373 27.0327L82.1329 27.0327C82.3854 28.9448 83.3354 30.0391 85.8608 30.0391C88.1215 30.0391 89.1677 29.1853 89.1677 27.7302C89.1677 26.2751 87.9652 25.6619 84.8867 25.229C79.2468 24.3752 77.0703 22.7517 77.0703 18.615C77.0703 14.2019 81.1108 12.0132 85.488 12.0132C90.1899 12.0132 93.7374 13.7207 94.2424 18.5911L88.819 18.5911C88.7844 18.2146 88.6755 17.8486 88.4987 17.5144C88.3218 17.1802 88.0805 16.8843 87.7887 16.644C87.4968 16.4036 87.1603 16.2234 86.7984 16.1138C86.4365 16.0042 86.0565 15.9675 85.6804 16.0056L85.5 16.0056C83.6 16.0056 82.4937 16.8955 82.4937 18.1941C82.4937 19.4929 83.5158 20.0581 86.6183 20.5032C91.8854 21.2966 94.8317 22.6316 94.8317 27.165C94.8317 31.6987 91.5006 34.1277 85.9209 34.1277C80.3411 34.1277 76.7936 31.6145 76.6373 27.0327Z" fill="#111111" fill-opacity="1.000000" fill-rule="nonzero"/>
		<path id="n" d="M53.2842 12.5063L59.1044 12.5063L59.1044 15.8613C59.7605 14.6299 60.7562 13.6125 61.9734 12.9304C63.1906 12.2483 64.5781 11.9299 65.9709 12.0132C70.0956 12.0132 73.0898 14.5266 73.0898 20.2627L73.0898 33.7429L67.3418 33.7429L67.3418 21.1045C67.3418 18.2302 66.2234 16.8594 63.626 16.8594C63.077 16.8115 62.5239 16.8728 61.9986 17.0393C61.4733 17.2058 60.986 17.4744 60.5648 17.8296C60.1436 18.1851 59.7966 18.6199 59.5439 19.1096C59.2913 19.5994 59.1378 20.1343 59.0924 20.6836C59.0623 20.9392 59.0623 21.1975 59.0924 21.4531L59.0924 33.6948L53.2842 33.6948L53.2842 12.5063Z" fill="#111111" fill-opacity="1.000000" fill-rule="nonzero"/>
		<path id="i" d="M42.0526 7.1792C42.0315 6.59888 42.1831 6.02539 42.4881 5.53125C42.7932 5.03711 43.2379 4.64478 43.7662 4.40356C44.2944 4.16235 44.8823 4.08325 45.4555 4.17651C46.0287 4.26953 46.5613 4.53076 46.986 4.92676C47.4106 5.32275 47.7083 5.83594 47.8412 6.40112C47.974 6.96655 47.9362 7.55835 47.7325 8.10229C47.5287 8.646 47.1682 9.11694 46.6965 9.45581C46.2249 9.79443 45.6633 9.98584 45.083 10.0051L44.9748 10.0051C44.6145 10.0278 44.2534 9.97949 43.912 9.8623C43.5706 9.74512 43.2557 9.56177 42.9853 9.32275C42.7149 9.08374 42.4944 8.79346 42.3364 8.46899C42.1784 8.14453 42.0861 7.79199 42.0646 7.43164C42.0546 7.3479 42.0506 7.26343 42.0526 7.1792ZM42.0526 12.5063L47.933 12.5063L47.933 33.6951L42.0767 33.6951L42.0526 12.5063Z" fill="#111111" fill-opacity="1.000000" fill-rule="nonzero"/>
		<path id="F" d="M19.8899 4.73804L38.481 4.73804L38.481 9.8728L26.4557 9.8728L26.4557 17.533L35.9798 17.533L35.9798 22.4753L26.4437 22.4753L26.4437 33.6951L19.8899 33.6951L19.8899 4.73804Z" fill="#111111" fill-opacity="1.000000" fill-rule="nonzero"/>
		<path id="{" d="M8.67026 14.2139C8.67026 16.0298 8.67026 18.2424 6.16898 19.1443C8.73038 20.0222 8.67026 21.886 8.67026 23.8342L8.67026 31.0493C8.67026 32.4202 9.22342 33.25 10.2095 33.4543C10.4262 33.5276 10.6544 33.5601 10.8829 33.5505L13.288 33.5505L13.288 38.3608L9.31961 38.3608C5.0867 38.3608 2.75378 35.9558 2.75378 31.4944L2.75378 22.9563C2.72379 22.5181 2.53052 22.1069 2.21213 21.8042C1.89377 21.5012 1.47345 21.3289 1.03418 21.3208L0 21.3208L0 17.1001L1.03418 17.1001C1.48224 17.094 1.9108 16.916 2.23099 16.6025C2.55118 16.2891 2.73837 15.8643 2.75378 15.4165L2.75378 6.7583C2.75378 2.3689 5.0386 0 9.31961 0L13.3241 0L13.3241 4.73804L10.919 4.73804C10.6902 4.73853 10.463 4.77515 10.2456 4.84619C9.25949 5.09863 8.70633 5.9165 8.70633 7.25122L8.67026 14.2139Z" fill="#111111" fill-opacity="1.000000" fill-rule="nonzero"/>
	</g>
</svg>
