<svg width="35.000000" height="35.000000" viewBox="0 0 35 35" fill="none" xmlns="http://www.w3.org/2000/svg" xmlns:xlink="http://www.w3.org/1999/xlink">
	<desc>
			Created with Pixso.
	</desc>
	<defs/>
	<path id="Vector" d="M8.87402 27.5762C8.47363 27.9766 8.47363 28.626 8.87402 29.0254L11.5332 31.6846L8.51758 34.6992C8.11719 35.1006 7.46777 35.1006 7.06738 34.6992L0.300781 27.9326C-0.100586 27.5322 -0.100586 26.8828 0.300781 26.4824L26.4824 0.300781C26.8828 -0.100586 27.5322 -0.100586 27.9326 0.300781L34.6992 7.06738C34.9004 7.26758 35 7.53027 35 7.79297C35 8.05469 34.9004 8.31738 34.6992 8.51758L31.6846 11.5332L28.0596 7.90723C27.6582 7.50684 27.0098 7.50684 26.6094 7.90723C26.209 8.30762 26.209 8.95703 26.6094 9.35742L30.2344 12.9834L27.9443 15.2734L25.2852 12.6143C24.8857 12.2139 24.2363 12.2139 23.835 12.6143C23.4346 13.0146 23.4346 13.6641 23.835 14.0645L26.4941 16.7236L24.2041 19.0137L20.5791 15.3877C20.1777 14.9883 19.5293 14.9883 19.1279 15.3877C18.7285 15.7891 18.7285 16.4375 19.1279 16.8379L22.7539 20.4639L20.4639 22.7539L17.8047 20.0957C17.4043 19.6943 16.7549 19.6943 16.3545 20.0957C15.9541 20.4951 15.9541 21.1445 16.3545 21.5449L19.0137 24.2041L16.7236 26.4941L13.0977 22.8691C12.6973 22.4688 12.0488 22.4688 11.6475 22.8691C11.2471 23.2695 11.2471 23.918 11.6475 24.3193L15.2734 27.9443L12.9834 30.2344L10.3242 27.5762C9.92383 27.1758 9.27441 27.1758 8.87402 27.5762Z" fill="#2405F2" fill-opacity="1.000000" fill-rule="nonzero"/>
</svg>
