<svg width="32.000000" height="27.920898" viewBox="0 0 32 27.9209" fill="none" xmlns="http://www.w3.org/2000/svg" xmlns:xlink="http://www.w3.org/1999/xlink">
	<desc>
			Created with Pixso.
	</desc>
	<defs/>
	<path id="Vector" d="M21.4375 5.4375C21.4375 8.44043 19.0029 10.875 16 10.875C12.9971 10.875 10.5625 8.44043 10.5625 5.4375C10.5625 2.43457 12.9971 0 16 0C19.0029 0 21.4375 2.43457 21.4375 5.4375Z" fill="#2405F2" fill-opacity="1.000000" fill-rule="evenodd"/>
	<path id="Vector" d="M30.4375 7.4375C30.4375 9.33594 28.8984 10.875 27 10.875C25.1016 10.875 23.5625 9.33594 23.5625 7.4375C23.5625 5.53906 25.1016 4 27 4C28.8984 4 30.4375 5.53906 30.4375 7.4375Z" fill="#2405F2" fill-opacity="1.000000" fill-rule="evenodd"/>
	<path id="Vector" d="M8.4375 7.4375C8.4375 9.33594 6.89844 10.875 5 10.875C3.10156 10.875 1.5625 9.33594 1.5625 7.4375C1.5625 5.53906 3.10156 4 5 4C6.89844 4 8.4375 5.53906 8.4375 7.4375Z" fill="#2405F2" fill-opacity="1.000000" fill-rule="evenodd"/>
	<path id="Vector" d="M8.38672 13.9619C7.0332 12.8525 5.80859 13 4.24414 13C1.90332 13 0 14.8916 0 17.2178L0 24.043C0 25.0537 0.824219 25.874 1.83789 25.874C6.21484 25.874 5.6875 25.9541 5.6875 25.6855C5.6875 20.8496 5.11426 17.3018 8.38672 13.9619Z" fill="#2405F2" fill-opacity="1.000000" fill-rule="nonzero"/>
	<path id="Vector" d="M17.4883 13.0254C14.7559 12.7969 12.3799 13.0273 10.3311 14.7188C6.90332 17.4648 7.5625 21.1621 7.5625 25.6865C7.5625 26.8828 8.53613 27.875 9.75098 27.875C22.9443 27.875 23.4688 28.3008 24.251 26.5684C24.5078 25.9824 24.4375 26.168 24.4375 20.5635C24.4375 16.1123 20.583 13.0254 17.4883 13.0254Z" fill="#2405F2" fill-opacity="1.000000" fill-rule="nonzero"/>
	<path id="Vector" d="M27.7568 13C26.1836 13 24.9648 12.8555 23.6133 13.9619C26.8613 17.2783 26.3125 20.583 26.3125 25.6865C26.3125 25.9561 25.875 25.875 30.0967 25.875C31.1465 25.875 32 25.0244 32 23.9795L32 17.2188C32 14.8926 30.0967 13 27.7568 13Z" fill="#2405F2" fill-opacity="1.000000" fill-rule="nonzero"/>
</svg>
