<svg width="34.000977" height="34.000000" viewBox="0 0 34.001 34" fill="none" xmlns="http://www.w3.org/2000/svg" xmlns:xlink="http://www.w3.org/1999/xlink">
	<desc>
			Created with Pixso.
	</desc>
	<defs/>
	<path id="Vector" d="M25.8662 5.80566C25.8662 5.00781 25.5547 4.25684 24.9902 3.69238L22.1738 0.875977C21.6172 0.319336 20.8271 0 20.041 0L19.8701 0L19.8701 5.97656L25.8662 5.97656L25.8662 5.80566Z" fill="#2405F2" fill-opacity="1.000000" fill-rule="nonzero"/>
	<path id="Vector" d="M18.1914 20.5557C18.3818 19.9766 18.7148 19.4375 19.1484 19.001L25.8926 12.2832L25.8926 7.96875L18.8936 7.96875C18.3428 7.96875 17.9297 7.52344 17.9297 6.97266L17.9297 0L2.98828 0C1.34082 0 0 1.34082 0 2.98828L0 31.0117C0 32.6592 1.34082 34 2.98828 34L22.8779 34C24.5254 34 25.8926 32.6592 25.8926 31.0117L25.8926 23.5771L24.7979 24.6455C24.3545 25.085 23.835 25.4053 23.249 25.6006L20.082 26.6582L19.5996 26.6846C18.8018 26.6846 18.0469 26.2959 17.5781 25.6465C17.1133 25 16.9873 24.1611 17.2402 23.4033L18.1914 20.5557ZM4.98047 17.9297L14.9092 17.9297C15.46 17.9297 15.9053 18.375 15.9053 18.9258C15.9053 19.4766 15.46 19.9219 14.9092 19.9219L4.98047 19.9219C4.42969 19.9219 3.98438 19.4766 3.98438 18.9258C3.98438 18.375 4.42969 17.9297 4.98047 17.9297ZM3.98438 14.9414C3.98438 14.3906 4.42969 13.9453 4.98047 13.9453L14.9092 13.9453C15.46 13.9453 15.9053 14.3906 15.9053 14.9414C15.9053 15.4922 15.46 15.9375 14.9092 15.9375L4.98047 15.9375C4.42969 15.9375 3.98438 15.4922 3.98438 14.9414ZM3.98438 22.9102C3.98438 22.3594 4.42969 21.9141 4.98047 21.9141L14.9092 21.9141C15.46 21.9141 15.9053 22.3594 15.9053 22.9102C15.9053 23.4609 15.46 23.9062 14.9092 23.9062L4.98047 23.9062C4.42969 23.9062 3.98438 23.4609 3.98438 22.9102ZM18.8936 27.8906C19.4443 27.8906 19.8896 28.3359 19.8896 28.8867C19.8896 29.4375 19.4443 29.8828 18.8936 29.8828L12.917 29.8828C12.3662 29.8828 11.9209 29.4375 11.9209 28.8867C11.9209 28.3359 12.3662 27.8906 12.917 27.8906L18.8936 27.8906ZM4.98047 11.9531C4.42969 11.9531 3.98438 11.5078 3.98438 10.957C3.98438 10.4062 4.42969 9.96094 4.98047 9.96094L18.8936 9.96094C19.4443 9.96094 19.8896 10.4062 19.8896 10.957C19.8896 11.5078 19.4443 11.9531 18.8936 11.9531L4.98047 11.9531Z" fill="#2405F2" fill-opacity="1.000000" fill-rule="nonzero"/>
	<path id="Vector" d="M19.9951 21.4365L19.1289 24.0361C18.999 24.4258 19.3701 24.7959 19.7588 24.666L22.3574 23.7988L19.9951 21.4365Z" fill="#2405F2" fill-opacity="1.000000" fill-rule="nonzero"/>
	<path id="Vector" d="M27.7324 13.2354L21.1719 19.7959L24.001 22.625C25.4834 21.1416 28.3691 18.2568 30.5605 16.0645L27.7324 13.2354Z" fill="#2405F2" fill-opacity="1.000000" fill-rule="nonzero"/>
	<path id="Vector" d="M33.415 10.3779C33.0645 10.0254 32.5488 9.82422 32.0029 9.82422C31.4561 9.82422 30.9404 10.0254 30.5879 10.3789L29.1406 11.8262L31.9697 14.6553C32.7617 13.8623 33.3096 13.3145 33.417 13.207C34.1953 12.4277 34.1953 11.1592 33.415 10.3779Z" fill="#2405F2" fill-opacity="1.000000" fill-rule="nonzero"/>
</svg>
