<svg width="30.625000" height="35.000000" viewBox="0 0 30.625 35" fill="none" xmlns="http://www.w3.org/2000/svg" xmlns:xlink="http://www.w3.org/1999/xlink">
	<desc>
			Created with Pixso.
	</desc>
	<defs/>
	<path id="Vector" d="M27.1162 9.94434L29.4688 7.59375C30.0391 7.02441 30.0391 6.10156 29.4688 5.53125C28.8984 4.96094 27.9766 4.96094 27.4062 5.53125L25.0537 7.88184C22.7588 5.98535 19.8994 4.74512 16.7705 4.44922L16.7705 2.91699L19.6875 2.91699C20.4941 2.91699 21.1455 2.26367 21.1455 1.45801C21.1455 0.65332 20.4941 0 19.6875 0L10.9375 0C10.1309 0 9.47949 0.65332 9.47949 1.45801C9.47949 2.26367 10.1309 2.91699 10.9375 2.91699L13.8545 2.91699L13.8545 4.44922C6.09277 5.18555 0 11.7363 0 19.6875C0 28.1309 6.86914 35 15.3125 35C23.7559 35 30.625 28.1309 30.625 19.6875C30.625 15.9893 29.3066 12.5938 27.1162 9.94434ZM16.7705 19.6875C16.7705 20.4941 16.1172 21.1455 15.3125 21.1455C14.5078 21.1455 13.8545 20.4941 13.8545 19.6875L13.8545 11.667C13.8545 10.8604 14.5078 10.208 15.3125 10.208C16.1172 10.208 16.7705 10.8604 16.7705 11.667L16.7705 19.6875Z" fill="#2405F2" fill-opacity="1.000000" fill-rule="nonzero"/>
</svg>
