<svg width="35.000000" height="35.000000" viewBox="0 0 35 35" fill="none" xmlns="http://www.w3.org/2000/svg" xmlns:xlink="http://www.w3.org/1999/xlink">
	<desc>
			Created with Pixso.
	</desc>
	<defs>
		<clipPath id="clip757_984">
			<rect id="Icon" width="35.000000" height="35.000000" fill="white" fill-opacity="0"/>
		</clipPath>
	</defs>
	<rect id="Icon" width="35.000000" height="35.000000" fill="#FFFFFF" fill-opacity="0"/>
	<g clip-path="url(#clip757_984)">
		<path id="Vector" d="M34.999 23.6855C34.999 19.3428 32.5078 15.4668 28.7764 13.5811C28.6602 21.9082 21.9082 28.6602 13.5811 28.7764C15.4668 32.5078 19.3428 34.999 23.6855 34.999C25.7227 34.999 27.7021 34.457 29.4424 33.4268L34.9502 34.9502L33.4268 29.4424C34.457 27.7021 34.999 25.7227 34.999 23.6855Z" fill="#2405F2" fill-opacity="1.000000" fill-rule="nonzero"/>
		<path id="Vector" d="M26.7285 13.3643C26.7285 5.99512 20.7334 0 13.3643 0C5.99512 0 0 5.99512 0 13.3643C0 15.7656 0.639648 18.1045 1.85352 20.1572L0.0488281 26.6787L6.57129 24.875C8.62402 26.0889 10.9629 26.7285 13.3643 26.7285C20.7334 26.7285 26.7285 20.7334 26.7285 13.3643ZM11.3135 10.2539L9.2627 10.2539C9.2627 7.99219 11.1025 6.15234 13.3643 6.15234C15.626 6.15234 17.4658 7.99219 17.4658 10.2539C17.4658 11.4023 16.9795 12.5049 16.1318 13.2803L14.3896 14.875L14.3896 16.4746L12.3389 16.4746L12.3389 13.9727L14.7471 11.7676C15.1777 11.374 15.415 10.8359 15.415 10.2539C15.415 9.12305 14.4951 8.20312 13.3643 8.20312C12.2334 8.20312 11.3135 9.12305 11.3135 10.2539ZM12.3389 18.5254L14.3896 18.5254L14.3896 20.5762L12.3389 20.5762L12.3389 18.5254Z" fill="#2405F2" fill-opacity="1.000000" fill-rule="nonzero"/>
	</g>
</svg>
