<svg width="638.000000" height="361.115234" viewBox="0 0 638 361.115" fill="none" xmlns="http://www.w3.org/2000/svg" xmlns:xlink="http://www.w3.org/1999/xlink">
	<desc>
			Created with Pixso.
	</desc>
	<defs>
		<filter id="filter_757_719_dd" x="305.000000" y="187.926758" width="42.291992" height="43.127930" filterUnits="userSpaceOnUse" color-interpolation-filters="sRGB">
			<feFlood flood-opacity="0" result="BackgroundImageFix"/>
			<feColorMatrix in="SourceAlpha" type="matrix" values="0 0 0 0 0 0 0 0 0 0 0 0 0 0 0 0 0 0 127 0" result="hardAlpha"/>
			<feOffset dx="0" dy="4"/>
			<feGaussianBlur stdDeviation="4.66667"/>
			<feComposite in2="hardAlpha" operator="out" k2="-1" k3="1"/>
			<feColorMatrix type="matrix" values="0 0 0 0 0.53333 0 0 0 0 0.9451 0 0 0 0 0.85882 0 0 0 1 0"/>
			<feBlend mode="normal" in2="BackgroundImageFix" result="effect_dropShadow_1"/>
			<feBlend mode="normal" in="SourceGraphic" in2="effect_dropShadow_1" result="shape"/>
		</filter>
		<linearGradient id="paint_linear_757_683_0" x1="319.250031" y1="0.000008" x2="442.351227" y2="524.886292" gradientUnits="userSpaceOnUse">
			<stop stop-color="#FFFFFF" stop-opacity="0.160784"/>
			<stop offset="1.000000" stop-color="#C4C4C4" stop-opacity="0.000000"/>
		</linearGradient>
		<linearGradient id="paint_linear_757_684_0" x1="319.000000" y1="-0.000031" x2="657.630737" y2="244.837708" gradientUnits="userSpaceOnUse">
			<stop stop-color="#FFFFFF" stop-opacity="0.168627"/>
			<stop offset="1.000000" stop-color="#000000" stop-opacity="0.000000"/>
		</linearGradient>
		<linearGradient id="paint_linear_757_692_0" x1="41.826599" y1="126.113251" x2="292.376099" y2="424.503662" gradientUnits="userSpaceOnUse">
			<stop stop-color="#40416E"/>
			<stop offset="1.000000" stop-color="#5A5B8B"/>
		</linearGradient>
		<linearGradient id="paint_linear_757_693_0" x1="96.775330" y1="90.502930" x2="209.543137" y2="420.410614" gradientUnits="userSpaceOnUse">
			<stop stop-color="#FFFFFF" stop-opacity="0.168627"/>
			<stop offset="1.000000" stop-color="#000000" stop-opacity="0.000000"/>
		</linearGradient>
		<linearGradient id="paint_linear_757_698_0" x1="315.416870" y1="15.233398" x2="383.833069" y2="224.644226" gradientUnits="userSpaceOnUse">
			<stop stop-color="#FFFFFF" stop-opacity="0.149020"/>
			<stop offset="1.000000" stop-color="#C4C4C4" stop-opacity="0.000000"/>
		</linearGradient>
		<linearGradient id="paint_linear_757_699_0" x1="797.652100" y1="535.759705" x2="358.062469" y2="72.825104" gradientUnits="userSpaceOnUse">
			<stop stop-color="#40416E"/>
			<stop offset="1.000000" stop-color="#5A5B8B"/>
		</linearGradient>
		<linearGradient id="paint_linear_757_700_0" x1="551.977478" y1="189.070312" x2="652.215454" y2="518.978027" gradientUnits="userSpaceOnUse">
			<stop stop-color="#FFFFFF" stop-opacity="0.168627"/>
			<stop offset="1.000000" stop-color="#000000" stop-opacity="0.000000"/>
		</linearGradient>
		<linearGradient id="paint_linear_757_701_0" x1="551.977173" y1="206.991226" x2="573.298523" y2="247.851883" gradientUnits="userSpaceOnUse">
			<stop stop-color="#FFFFFF" stop-opacity="0.560784"/>
			<stop offset="1.000000" stop-color="#C4C4C4" stop-opacity="0.000000"/>
		</linearGradient>
		<linearGradient id="paint_linear_757_702_0" x1="506.974670" y1="224.913086" x2="514.606750" y2="265.773743" gradientUnits="userSpaceOnUse">
			<stop stop-color="#F9C746" stop-opacity="0.521569"/>
			<stop offset="1.000000" stop-color="#C4C4C4" stop-opacity="0.000000"/>
		</linearGradient>
		<linearGradient id="paint_linear_757_703_0" x1="550.384094" y1="224.913086" x2="554.018372" y2="265.773743" gradientUnits="userSpaceOnUse">
			<stop stop-color="#84EBE5" stop-opacity="0.619608"/>
			<stop offset="1.000000" stop-color="#C4C4C4" stop-opacity="0.000000"/>
		</linearGradient>
		<linearGradient id="paint_linear_757_704_0" x1="506.974670" y1="296.598633" x2="514.606750" y2="337.459290" gradientUnits="userSpaceOnUse">
			<stop stop-color="#FFFFFF" stop-opacity="0.560784"/>
			<stop offset="1.000000" stop-color="#C4C4C4" stop-opacity="0.000000"/>
		</linearGradient>
		<linearGradient id="paint_linear_757_705_0" x1="550.384094" y1="296.598633" x2="554.018372" y2="337.459290" gradientUnits="userSpaceOnUse">
			<stop stop-color="#F47D9E"/>
			<stop offset="1.000000" stop-color="#C4C4C4" stop-opacity="0.000000"/>
		</linearGradient>
		<linearGradient id="paint_linear_757_706_0" x1="520.117615" y1="260.755859" x2="523.025085" y2="301.616516" gradientUnits="userSpaceOnUse">
			<stop stop-color="#F2C87D"/>
			<stop offset="1.000000" stop-color="#C4C4C4" stop-opacity="0.000000"/>
		</linearGradient>
		<linearGradient id="paint_linear_757_707_0" x1="565.917114" y1="260.755859" x2="574.760620" y2="301.616516" gradientUnits="userSpaceOnUse">
			<stop stop-color="#FFFFFF" stop-opacity="0.619608"/>
			<stop offset="1.000000" stop-color="#C4C4C4" stop-opacity="0.000000"/>
		</linearGradient>
		<linearGradient id="paint_linear_757_708_0" x1="488.256805" y1="258.963715" x2="519.718689" y2="301.078857" gradientUnits="userSpaceOnUse">
			<stop stop-color="#F37D9D"/>
			<stop offset="1.000000" stop-color="#C4C4C4" stop-opacity="0.000000"/>
		</linearGradient>
		<linearGradient id="paint_linear_757_709_0" x1="514.541443" y1="242.833984" x2="524.475281" y2="283.694641" gradientUnits="userSpaceOnUse">
			<stop stop-color="#FFFFFF" stop-opacity="0.580392"/>
			<stop offset="1.000000" stop-color="#C4C4C4" stop-opacity="0.000000"/>
		</linearGradient>
		<linearGradient id="paint_linear_757_710_0" x1="569.899292" y1="242.833984" x2="575.108459" y2="283.694641" gradientUnits="userSpaceOnUse">
			<stop stop-color="#FFFFFF" stop-opacity="0.450980"/>
			<stop offset="1.000000" stop-color="#C4C4C4" stop-opacity="0.000000"/>
		</linearGradient>
		<linearGradient id="paint_linear_757_711_0" x1="514.541443" y1="278.676758" x2="524.475281" y2="319.537415" gradientUnits="userSpaceOnUse">
			<stop stop-color="#70D1E7"/>
			<stop offset="1.000000" stop-color="#C4C4C4" stop-opacity="0.000000"/>
		</linearGradient>
		<linearGradient id="paint_linear_757_717_0" x1="314.831421" y1="147.040955" x2="127.282463" y2="175.322342" gradientUnits="userSpaceOnUse">
			<stop stop-color="#767799"/>
			<stop offset="1.000000" stop-color="#767799" stop-opacity="0.000000"/>
		</linearGradient>
		<linearGradient id="paint_linear_757_718_0" x1="338.205139" y1="261.565491" x2="535.756714" y2="233.284134" gradientUnits="userSpaceOnUse">
			<stop stop-color="#767799"/>
			<stop offset="1.000000" stop-color="#767799" stop-opacity="0.000000"/>
		</linearGradient>
	</defs>
	<path id="Rectangle 1285" d="M80 17.0254C80 7.62207 87.6221 0 97.0254 0L541.475 0C550.878 0 558.5 7.62207 558.5 17.0254L558.5 344.09C558.5 353.492 550.878 361.115 541.475 361.115L97.0254 361.115C87.6221 361.115 80 353.492 80 344.09L80 17.0254Z" fill="url(#paint_linear_757_683_0)" fill-opacity="1.000000" fill-rule="nonzero"/>
	<path id="Rectangle 1285 (Stroke)" d="M541.225 1.79199L96.7754 1.79199C88.3623 1.79199 81.542 8.6123 81.542 17.0254L81.542 344.09C81.542 352.503 88.3623 359.323 96.7754 359.323L541.225 359.323C549.638 359.323 556.458 352.503 556.458 344.09L556.458 17.0254C556.458 8.6123 549.638 1.79199 541.225 1.79199ZM96.7754 0C87.3721 0 79.75 7.62207 79.75 17.0254L79.75 344.09C79.75 353.492 87.3721 361.115 96.7754 361.115L541.225 361.115C550.628 361.115 558.25 353.492 558.25 344.09L558.25 17.0254C558.25 7.62207 550.628 0 541.225 0L96.7754 0Z" fill="url(#paint_linear_757_684_0)" fill-opacity="1.000000" fill-rule="evenodd"/>
	<path id="Rectangle 1274" d="M364.699 281.816C364.699 278.104 367.71 275.093 371.425 275.093L390.761 275.093C394.476 275.093 397.486 278.104 397.486 281.816L397.486 301.147C397.486 304.86 394.476 307.871 390.761 307.871L371.425 307.871C367.71 307.871 364.699 304.86 364.699 301.147L364.699 281.816Z" fill="#51CB9C" fill-opacity="1.000000" fill-rule="nonzero"/>
	<path id="&lt;&gt;" d="M370.583 291.469L376.264 297.786L378.974 297.786L373.271 291.469L378.974 285.179L376.264 285.179L370.583 291.469ZM385.896 285.179L383.186 285.179L388.89 291.469L383.186 297.786L385.896 297.786L391.601 291.469L385.896 285.179Z" fill="#FFFFFF" fill-opacity="1.000000" fill-rule="evenodd"/>
	<path id="Rectangle 1274" d="M258.066 103.499C258.066 99.7861 261.077 96.7754 264.792 96.7754L284.128 96.7754C287.843 96.7754 290.854 99.7861 290.854 103.499L290.854 122.83C290.854 126.543 287.843 129.554 284.128 129.554L264.792 129.554C261.077 129.554 258.066 126.543 258.066 122.83L258.066 103.499Z" fill="#1ABCFE" fill-opacity="1.000000" fill-rule="nonzero"/>
	<path id="Rectangle 1275 (Stroke)" d="M277.349 109.14L274.687 105.066L266.7 105.066L266.7 122.716L282.674 122.716L282.674 109.14L277.349 109.14ZM280.571 111.24L276.212 111.24L273.55 107.168L268.802 107.168L268.802 120.615L280.571 120.615L280.571 111.24Z" fill="#FFFFFF" fill-opacity="1.000000" fill-rule="evenodd"/>
	<path id="Rectangle 1274" d="M425.631 140.237C425.631 136.524 428.642 133.514 432.356 133.514L451.692 133.514C455.407 133.514 458.418 136.524 458.418 140.237L458.418 159.568C458.418 163.281 455.407 166.292 451.692 166.292L432.356 166.292C428.642 166.292 425.631 163.281 425.631 159.568L425.631 140.237Z" fill="#FFC04A" fill-opacity="1.000000" fill-rule="nonzero"/>
	<path id="{" d="M434.039 149.055C435.399 148.802 436.079 148.102 436.079 146.955C436.079 146.448 436.013 145.582 435.879 144.355C435.746 143.049 435.68 142.103 435.68 141.516C435.68 140.557 435.946 139.823 436.479 139.316C437.026 138.81 437.753 138.557 438.659 138.557L439.819 138.557L439.819 140.137L438.999 140.137C438.479 140.137 438.093 140.256 437.84 140.496C437.586 140.723 437.459 141.103 437.459 141.636C437.459 142.022 437.486 142.503 437.539 143.076C437.593 143.636 437.626 144.016 437.64 144.216C437.772 145.495 437.84 146.429 437.84 147.015C437.84 147.722 437.659 148.314 437.3 148.795C436.953 149.262 436.413 149.574 435.68 149.734L435.68 149.774C436.413 149.935 436.953 150.255 437.3 150.734C437.659 151.214 437.84 151.808 437.84 152.514C437.84 153.101 437.772 154.034 437.64 155.313C437.626 155.514 437.593 155.9 437.539 156.474C437.486 157.033 437.459 157.507 437.459 157.893C437.459 158.426 437.586 158.807 437.84 159.033C438.093 159.272 438.479 159.393 438.999 159.393L439.819 159.393L439.819 160.973L438.659 160.973C437.753 160.973 437.026 160.719 436.479 160.213C435.946 159.706 435.68 158.973 435.68 158.013C435.68 157.427 435.746 156.479 435.879 155.174C436.013 153.947 436.079 153.081 436.079 152.574C436.079 151.428 435.399 150.728 434.039 150.475L434.039 149.055Z" fill="#1C1E53" fill-opacity="1.000000" fill-rule="nonzero"/>
	<path id="}" d="M450.255 150.475C448.895 150.728 448.215 151.428 448.215 152.574C448.215 153.081 448.281 153.947 448.415 155.174C448.548 156.479 448.615 157.427 448.615 158.013C448.615 158.973 448.342 159.706 447.795 160.213C447.262 160.719 446.541 160.973 445.635 160.973L444.475 160.973L444.475 159.393L445.295 159.393C445.814 159.393 446.201 159.272 446.455 159.033C446.708 158.807 446.835 158.426 446.835 157.893C446.835 157.507 446.809 157.033 446.755 156.474C446.701 155.9 446.668 155.514 446.655 155.313C446.521 154.034 446.455 153.101 446.455 152.514C446.455 151.808 446.628 151.214 446.975 150.734C447.335 150.255 447.882 149.935 448.615 149.774L448.615 149.734C447.882 149.574 447.335 149.262 446.975 148.795C446.628 148.314 446.455 147.722 446.455 147.015C446.455 146.429 446.521 145.495 446.655 144.216C446.668 144.016 446.701 143.636 446.755 143.076C446.809 142.503 446.835 142.022 446.835 141.636C446.835 141.103 446.708 140.723 446.455 140.496C446.201 140.256 445.814 140.137 445.295 140.137L444.475 140.137L444.475 138.557L445.635 138.557C446.541 138.557 447.262 138.81 447.795 139.316C448.342 139.823 448.615 140.557 448.615 141.516C448.615 142.103 448.548 143.049 448.415 144.355C448.281 145.582 448.215 146.448 448.215 146.955C448.215 148.102 448.895 148.802 450.255 149.055L450.255 150.475Z" fill="#1C1E53" fill-opacity="1.000000" fill-rule="nonzero"/>
	<path id="Rectangle 1287" d="M0 101.256C0 95.3174 4.81445 90.5029 10.7529 90.5029L182.798 90.5029C188.736 90.5029 193.551 95.3174 193.551 101.256L193.551 212.368C193.551 218.307 188.736 223.121 182.798 223.121L10.7529 223.121C4.81445 223.121 0 218.307 0 212.368L0 101.256Z" fill="url(#paint_linear_757_692_0)" fill-opacity="1.000000" fill-rule="nonzero"/>
	<path id="Rectangle 1287 (Stroke)" d="M182.798 92.2949L10.7529 92.2949C5.80371 92.2949 1.79199 96.3066 1.79199 101.256L1.79199 212.368C1.79199 217.317 5.80371 221.329 10.7529 221.329L182.798 221.329C187.746 221.329 191.759 217.317 191.759 212.368L191.759 101.256C191.759 96.3066 187.746 92.2949 182.798 92.2949ZM10.7529 90.5029C4.81445 90.5029 0 95.3174 0 101.256L0 212.368C0 218.307 4.81445 223.121 10.7529 223.121L182.798 223.121C188.736 223.121 193.551 218.307 193.551 212.368L193.551 101.256C193.551 95.3174 188.736 90.5029 182.798 90.5029L10.7529 90.5029Z" fill="url(#paint_linear_757_693_0)" fill-opacity="1.000000" fill-rule="evenodd"/>
	<path id="Rectangle 1289" d="M21.5059 125.449C21.5059 122.48 23.9131 120.073 26.8818 120.073L77.0625 120.073C80.0312 120.073 82.4385 122.48 82.4385 125.449L82.4385 182.798C82.4385 185.768 80.0312 188.175 77.0625 188.175L26.8818 188.175C23.9131 188.175 21.5059 185.768 21.5059 182.798L21.5059 125.449Z" fill="#FFFFFF" fill-opacity="0.170000" fill-rule="nonzero"/>
	<path id="Rectangle 1290" d="M94.0859 125.002C94.0859 122.279 96.292 120.073 99.0146 120.073L162.635 120.073C165.357 120.073 167.563 122.279 167.563 125.002C167.563 127.724 165.357 129.93 162.635 129.93L99.0146 129.93C96.292 129.93 94.0859 127.724 94.0859 125.002Z" fill="#FFFFFF" fill-opacity="0.600000" fill-rule="nonzero"/>
	<path id="Rectangle 1291" d="M94.0859 143.819C94.0859 141.097 96.292 138.891 99.0146 138.891L162.635 138.891C165.357 138.891 167.563 141.097 167.563 143.819C167.563 146.541 165.357 148.747 162.635 148.747L99.0146 148.747C96.292 148.747 94.0859 146.541 94.0859 143.819Z" fill="#FFFFFF" fill-opacity="0.260000" fill-rule="nonzero"/>
	<path id="Rectangle 1293" d="M94.0859 175.181C94.0859 166.025 101.508 158.604 110.663 158.604L111.56 158.604C120.715 158.604 128.137 166.025 128.137 175.181C128.137 184.336 120.715 191.758 111.56 191.758L110.663 191.758C101.508 191.758 94.0859 184.336 94.0859 175.181Z" fill="#767799" fill-opacity="1.000000" fill-rule="nonzero"/>
	<path id="Rectangle 1286" d="M90.5039 33.6025C90.5039 23.458 98.7285 15.2334 108.873 15.2334L521.96 15.2334C532.105 15.2334 540.33 23.458 540.33 33.6025C540.33 43.748 532.105 51.9717 521.96 51.9717L108.873 51.9717C98.7285 51.9717 90.5039 43.748 90.5039 33.6025Z" fill="url(#paint_linear_757_698_0)" fill-opacity="1.000000" fill-rule="nonzero"/>
	<path id="Rectangle 1288" d="M465.955 199.823C465.955 193.885 470.77 189.07 476.708 189.07L627.247 189.07C633.186 189.07 638 193.885 638 199.823L638 310.936C638 316.874 633.186 321.688 627.247 321.688L476.708 321.688C470.77 321.688 465.955 316.874 465.955 310.936L465.955 199.823Z" fill="url(#paint_linear_757_699_0)" fill-opacity="1.000000" fill-rule="nonzero"/>
	<path id="Rectangle 1288 (Stroke)" d="M627.247 190.862L476.708 190.862C471.759 190.862 467.747 194.874 467.747 199.823L467.747 310.936C467.747 315.885 471.759 319.896 476.708 319.896L627.247 319.896C632.196 319.896 636.208 315.885 636.208 310.936L636.208 199.823C636.208 194.874 632.196 190.862 627.247 190.862ZM476.708 189.07C470.77 189.07 465.955 193.885 465.955 199.823L465.955 310.936C465.955 316.874 470.77 321.688 476.708 321.688L627.247 321.688C633.186 321.688 638 316.874 638 310.936L638 199.823C638 193.885 633.186 189.07 627.247 189.07L476.708 189.07Z" fill="url(#paint_linear_757_700_0)" fill-opacity="1.000000" fill-rule="evenodd"/>
	<path id="Rectangle 1290" d="M481.885 210.575C481.885 208.596 483.489 206.991 485.469 206.991L618.485 206.991C620.465 206.991 622.069 208.596 622.069 210.575C622.069 212.555 620.465 214.16 618.485 214.16L485.469 214.16C483.489 214.16 481.885 212.555 481.885 210.575Z" fill="url(#paint_linear_757_701_0)" fill-opacity="1.000000" fill-rule="nonzero"/>
	<path id="Rectangle 1291" d="M481.885 228.497C481.885 226.518 483.489 224.913 485.469 224.913L528.48 224.913C530.46 224.913 532.064 226.518 532.064 228.497C532.064 230.477 530.46 232.082 528.48 232.082L485.469 232.082C483.489 232.082 481.885 230.477 481.885 228.497Z" fill="url(#paint_linear_757_702_0)" fill-opacity="1.000000" fill-rule="nonzero"/>
	<path id="Rectangle 1292" d="M538.437 228.497C538.437 226.518 540.041 224.913 542.021 224.913L558.747 224.913C560.727 224.913 562.332 226.518 562.332 228.497C562.332 230.477 560.727 232.082 558.747 232.082L542.021 232.082C540.041 232.082 538.437 230.477 538.437 228.497Z" fill="url(#paint_linear_757_703_0)" fill-opacity="1.000000" fill-rule="nonzero"/>
	<path id="Rectangle 1291" d="M481.885 300.183C481.885 298.203 483.489 296.599 485.469 296.599L528.48 296.599C530.46 296.599 532.064 298.203 532.064 300.183C532.064 302.162 530.46 303.768 528.48 303.768L485.469 303.768C483.489 303.768 481.885 302.162 481.885 300.183Z" fill="url(#paint_linear_757_704_0)" fill-opacity="1.000000" fill-rule="nonzero"/>
	<path id="Rectangle 1292" d="M538.437 300.183C538.437 298.203 540.041 296.599 542.021 296.599L558.747 296.599C560.727 296.599 562.332 298.203 562.332 300.183C562.332 302.162 560.727 303.768 558.747 303.768L542.021 303.768C540.041 303.768 538.437 302.162 538.437 300.183Z" fill="url(#paint_linear_757_705_0)" fill-opacity="1.000000" fill-rule="nonzero"/>
	<path id="Rectangle 1296" d="M510.56 264.34C510.56 262.36 512.164 260.756 514.144 260.756L526.092 260.756C528.071 260.756 529.676 262.36 529.676 264.34C529.676 266.319 528.071 267.925 526.092 267.925L514.144 267.925C512.164 267.925 510.56 266.319 510.56 264.34Z" fill="url(#paint_linear_757_706_0)" fill-opacity="1.000000" fill-rule="nonzero"/>
	<path id="Rectangle 1297" d="M536.845 264.34C536.845 262.36 538.449 260.756 540.429 260.756L591.405 260.756C593.385 260.756 594.989 262.36 594.989 264.34C594.989 266.319 593.385 267.925 591.405 267.925L540.429 267.925C538.449 267.925 536.845 266.319 536.845 264.34Z" fill="url(#paint_linear_757_707_0)" fill-opacity="1.000000" fill-rule="nonzero"/>
	<path id="Rectangle 1295" d="M481.885 264.34C481.885 262.36 483.489 260.756 485.469 260.756L502.195 260.756C504.175 260.756 505.78 262.36 505.78 264.34C505.78 266.319 504.175 267.925 502.195 267.925L485.469 267.925C483.489 267.925 481.885 266.319 481.885 264.34Z" fill="url(#paint_linear_757_708_0)" fill-opacity="1.000000" fill-rule="nonzero"/>
	<path id="Rectangle 1293" d="M481.885 246.418C481.885 244.438 483.489 242.834 485.469 242.834L543.614 242.834C545.594 242.834 547.198 244.438 547.198 246.418C547.198 248.397 545.594 250.003 543.614 250.003L485.469 250.003C483.489 250.003 481.885 248.397 481.885 246.418Z" fill="url(#paint_linear_757_709_0)" fill-opacity="1.000000" fill-rule="nonzero"/>
	<path id="Rectangle 1294" d="M552.774 246.418C552.774 244.438 554.379 242.834 556.358 242.834L583.439 242.834C585.419 242.834 587.024 244.438 587.024 246.418C587.024 248.397 585.419 250.003 583.439 250.003L556.358 250.003C554.379 250.003 552.774 248.397 552.774 246.418Z" fill="url(#paint_linear_757_710_0)" fill-opacity="1.000000" fill-rule="nonzero"/>
	<path id="Rectangle 1293" d="M481.885 282.261C481.885 280.281 483.489 278.677 485.469 278.677L543.614 278.677C545.594 278.677 547.198 280.281 547.198 282.261C547.198 284.24 545.594 285.846 543.614 285.846L485.469 285.846C483.489 285.846 481.885 284.24 481.885 282.261Z" fill="url(#paint_linear_757_711_0)" fill-opacity="1.000000" fill-rule="nonzero"/>
	<path id="Ellipse 22" d="M123.343 33.8047C123.343 37.1982 120.591 39.9492 117.197 39.9492C113.803 39.9492 111.051 37.1982 111.051 33.8047C111.051 30.4111 113.803 27.6602 117.197 27.6602C120.591 27.6602 123.343 30.4111 123.343 33.8047Z" fill="#FED280" fill-opacity="1.000000" fill-rule="nonzero"/>
	<path id="Ellipse 23" d="M144.854 33.8047C144.854 37.1982 142.103 39.9492 138.709 39.9492C135.314 39.9492 132.562 37.1982 132.562 33.8047C132.562 30.4111 135.314 27.6602 138.709 27.6602C142.103 27.6602 144.854 30.4111 144.854 33.8047Z" fill="#8CFEE3" fill-opacity="0.900000" fill-rule="nonzero"/>
	<path id="Ellipse 24" d="M166.368 33.8047C166.368 37.1982 163.616 39.9492 160.223 39.9492C156.828 39.9492 154.076 37.1982 154.076 33.8047C154.076 30.4111 156.828 27.6602 160.223 27.6602C163.616 27.6602 166.368 30.4111 166.368 33.8047Z" fill="#FF8DA9" fill-opacity="0.900000" fill-rule="nonzero"/>
	<path id="Vector 9" d="M41.6465 153.256L29.7979 171.856C28.1016 174.52 30.0146 178.006 33.1719 178.006L70.9102 178.006C74.1768 178.006 76.0654 174.304 74.1494 171.658L67.458 162.425C65.9766 160.381 62.9961 160.203 61.2822 162.056L61.1572 162.19C59.4736 164.012 56.5557 163.877 55.0469 161.908L48.1953 152.972C46.5059 150.768 43.1387 150.914 41.6465 153.256Z" fill="#FFFFFF" fill-opacity="1.000000" fill-rule="nonzero"/>
	<path id="Ellipse 221" d="M71.4785 140.026C71.4785 143.243 68.8711 145.851 65.6543 145.851C62.4375 145.851 59.8301 143.243 59.8301 140.026C59.8301 136.81 62.4375 134.202 65.6543 134.202C68.8711 134.202 71.4785 136.81 71.4785 140.026Z" fill="#C4C5DC" fill-opacity="1.000000" fill-rule="nonzero"/>
	<path id="Vector 10 (Stroke)" d="M192.43 153.228C192.43 152.609 192.932 152.107 193.55 152.107L327.08 152.107L327.08 178.486C327.08 179.104 326.578 179.606 325.96 179.606C325.341 179.606 324.84 179.104 324.84 178.486L324.84 154.348L193.55 154.348C192.932 154.348 192.43 153.846 192.43 153.228Z" fill="url(#paint_linear_757_717_0)" fill-opacity="1.000000" fill-rule="evenodd"/>
	<path id="Vector 11 (Stroke)" d="M467.075 255.379C467.075 255.997 466.573 256.499 465.955 256.499L325.257 256.499L325.257 231.12C325.257 230.502 325.758 230 326.377 230C326.995 230 327.496 230.502 327.496 231.12L327.496 254.259L465.955 254.259C466.573 254.259 467.075 254.761 467.075 255.379Z" fill="url(#paint_linear_757_718_0)" fill-opacity="1.000000" fill-rule="evenodd"/>
	<g filter="url(#filter_757_719_dd)">
		<path id="Vector" d="M324.056 199.555C324.05 199.771 324.089 199.875 324.287 199.875L329.06 199.875C329.924 199.939 330.697 200.154 331.352 200.574C331.806 200.866 332.137 201.213 332.387 201.597C332.83 202.278 333.081 203.262 333.217 204.055C333.275 204.398 333.303 204.719 333.24 204.867C333.21 204.938 333.166 204.984 333.107 205.007C332.778 205.132 332.432 204.704 332.247 204.499C331.367 203.524 330.088 203.121 328.579 203.045L324.216 203.045C324.06 203.071 324.005 203.181 324.021 203.349L324.021 204.513C324.011 204.899 323.805 205.03 323.396 204.9L319.64 202.108L319.271 201.834L319.176 201.764C318.874 201.507 318.998 201.272 319.269 201.07L319.556 200.856L323.156 198.173C323.595 197.845 324.056 197.758 324.056 198.464L324.056 199.555ZM328.236 211.428C328.242 211.211 328.203 211.107 328.005 211.106L323.232 211.106C322.368 211.043 321.595 210.827 320.94 210.407C320.484 210.113 320.151 209.765 319.901 209.378C319.448 208.678 319.152 207.538 319.044 206.721C319.01 206.46 319.002 206.232 319.053 206.114C319.082 206.044 319.126 205.997 319.186 205.975C319.514 205.85 319.86 206.277 320.045 206.482C320.926 207.457 322.205 207.86 323.713 207.937L328.076 207.937C328.232 207.911 328.288 207.802 328.272 207.633L328.272 206.469C328.281 206.082 328.487 205.951 328.896 206.081L332.652 208.873L333.021 209.147L333.116 209.218C333.418 209.476 333.294 209.709 333.023 209.911L332.736 210.125L329.137 212.809C328.697 213.137 328.236 213.224 328.236 212.518L328.236 211.428Z" fill="#88F1DB" fill-opacity="1.000000" fill-rule="evenodd"/>
	</g>
	<circle id="Ellipse 225" cx="326.000000" cy="205.000000" r="19.000000" stroke="#FFFFFF" stroke-opacity="1.000000" stroke-width="2.000000"/>
	<path id="Ellipse 222" d="M248.211 153.228C248.211 158.176 244.199 162.188 239.251 162.188C234.302 162.188 230.29 158.176 230.29 153.228C230.29 148.278 234.302 144.267 239.251 144.267C244.199 144.267 248.211 148.278 248.211 153.228Z" fill="#383A68" fill-opacity="1.000000" fill-rule="nonzero"/>
	<path id="Ellipse 222 (Stroke)" d="M239.251 160.396C243.21 160.396 246.419 157.187 246.419 153.228C246.419 149.269 243.21 146.059 239.251 146.059C235.292 146.059 232.082 149.269 232.082 153.228C232.082 157.187 235.292 160.396 239.251 160.396ZM239.251 162.188C244.199 162.188 248.211 158.176 248.211 153.228C248.211 148.278 244.199 144.267 239.251 144.267C234.302 144.267 230.29 148.278 230.29 153.228C230.29 158.176 234.302 162.188 239.251 162.188Z" fill="#63648A" fill-opacity="1.000000" fill-rule="evenodd"/>
	<path id="Ellipse 223" d="M443.552 255.38C443.552 260.328 439.54 264.34 434.592 264.34C429.643 264.34 425.631 260.328 425.631 255.38C425.631 250.431 429.643 246.419 434.592 246.419C439.54 246.419 443.552 250.431 443.552 255.38Z" fill="#383A68" fill-opacity="1.000000" fill-rule="nonzero"/>
	<path id="Ellipse 223 (Stroke)" d="M434.592 262.548C438.551 262.548 441.76 259.339 441.76 255.38C441.76 251.421 438.551 248.211 434.592 248.211C430.633 248.211 427.423 251.421 427.423 255.38C427.423 259.339 430.633 262.548 434.592 262.548ZM434.592 264.34C439.54 264.34 443.552 260.328 443.552 255.38C443.552 250.431 439.54 246.419 434.592 246.419C429.643 246.419 425.631 250.431 425.631 255.38C425.631 260.328 429.643 264.34 434.592 264.34Z" fill="#63648A" fill-opacity="1.000000" fill-rule="evenodd"/>
	<path id="Rectangle 1274" d="M134.41 165.327C134.41 161.614 137.421 158.604 141.136 158.604L160.472 158.604C164.187 158.604 167.197 161.614 167.197 165.327L167.197 184.658C167.197 188.371 164.187 191.382 160.472 191.382L141.136 191.382C137.421 191.382 134.41 188.371 134.41 184.658L134.41 165.327Z" fill="#767799" fill-opacity="1.000000" fill-rule="nonzero"/>
	<path id="Vector 8 (Stroke)" d="M154.065 184.394L148.007 184.394L148.007 181.872L154.065 181.872L154.065 184.394Z" fill="#FFFFFF" fill-opacity="1.000000" fill-rule="evenodd"/>
	<path id="Vector 6 (Stroke)" d="M142.396 167.429L159.21 167.429L159.21 171.484L156.688 171.484L156.688 169.95L144.919 169.95L144.919 171.484L142.396 171.484L142.396 167.429Z" fill="#FFFFFF" fill-opacity="1.000000" fill-rule="evenodd"/>
	<path id="Vector 7 (Stroke)" d="M149.699 183.274L149.854 168.831L152.376 168.858L152.221 183.302L149.699 183.274Z" fill="#FFFFFF" fill-opacity="1.000000" fill-rule="evenodd"/>
</svg>
