<svg width="16.000000" height="16.000000" viewBox="0 0 16 16" fill="none" xmlns="http://www.w3.org/2000/svg" xmlns:xlink="http://www.w3.org/1999/xlink">
	<desc>
			Created with Pixso.
	</desc>
	<defs>
		<clipPath id="clip28_10">
			<rect id="Instagram / Negative" width="16.000000" height="16.000000" fill="white" fill-opacity="0"/>
		</clipPath>
	</defs>
	<rect id="Instagram / Negative" width="16.000000" height="16.000000" fill="#FFFFFF" fill-opacity="0"/>
	<g clip-path="url(#clip28_10)">
		<path id="Vector" d="M8 1.44141C10.1377 1.44141 10.3906 1.44922 11.2314 1.48828C12.0127 1.52148 12.4346 1.65234 12.7158 1.76172C13.0879 1.90625 13.3564 2.08203 13.6348 2.35938C13.916 2.64062 14.0879 2.90625 14.2314 3.27734C14.3408 3.55859 14.4717 3.98438 14.5059 4.76172C14.5439 5.60547 14.5527 5.85938 14.5527 7.99414C14.5527 10.1309 14.5439 10.3848 14.5059 11.2246C14.4717 12.0059 14.3408 12.4277 14.2314 12.709C14.0879 13.082 13.9121 13.3496 13.6348 13.6289C13.3535 13.9102 13.0879 14.082 12.7158 14.2246C12.4346 14.334 12.0098 14.4648 11.2314 14.5C10.3877 14.5371 10.1348 14.5469 8 14.5469C5.8623 14.5469 5.60938 14.5371 4.76855 14.5C3.9873 14.4648 3.56543 14.334 3.28418 14.2246C2.91211 14.082 2.64355 13.9062 2.36523 13.6289C2.08398 13.3477 1.91211 13.082 1.76855 12.709C1.65918 12.4277 1.52832 12.0039 1.49414 11.2246C1.45605 10.3809 1.44727 10.1289 1.44727 7.99414C1.44727 5.85547 1.45605 5.60352 1.49414 4.76172C1.52832 3.98047 1.65918 3.55859 1.76855 3.27734C1.91211 2.90625 2.08789 2.63672 2.36523 2.35938C2.64648 2.07812 2.91211 1.90625 3.28418 1.76172C3.56543 1.65234 3.99023 1.52148 4.76855 1.48828C5.60938 1.44922 5.8623 1.44141 8 1.44141ZM8 0C5.82812 0 5.55664 0.00976562 4.70312 0.046875C3.85352 0.0839844 3.26855 0.222656 2.7627 0.417969C2.23438 0.625 1.78711 0.896484 1.34375 1.34375C0.896484 1.78711 0.625 2.23438 0.418945 2.75977C0.22168 3.26953 0.0839844 3.84961 0.046875 4.69922C0.00976562 5.55664 0 5.82812 0 8C0 10.1719 0.00976562 10.4434 0.046875 11.2969C0.0839844 12.1465 0.22168 12.7305 0.418945 13.2383C0.625 13.7656 0.896484 14.2129 1.34375 14.6562C1.78711 15.0996 2.23438 15.375 2.75977 15.5781C3.26855 15.7754 3.84961 15.9121 4.7002 15.9492C5.55273 15.9883 5.8252 15.9961 7.99707 15.9961C10.1689 15.9961 10.4404 15.9883 11.2939 15.9492C12.1436 15.9121 12.7285 15.7754 13.2344 15.5781C13.7598 15.375 14.2061 15.0996 14.6504 14.6562C15.0938 14.2129 15.3691 13.7656 15.5723 13.2402C15.7686 12.7305 15.9062 12.1504 15.9434 11.3008C15.9814 10.4473 15.9902 10.1758 15.9902 8.00391C15.9902 5.83203 15.9814 5.55859 15.9434 4.70703C15.9062 3.85547 15.7686 3.27148 15.5723 2.76562C15.375 2.23438 15.1035 1.78711 14.6562 1.34375C14.2129 0.900391 13.7656 0.625 13.2402 0.421875C12.7314 0.224609 12.1504 0.0878906 11.2998 0.0507812C10.4434 0.00976562 10.1719 0 8 0Z" fill="#FFFFFF" fill-opacity="1.000000" fill-rule="nonzero"/>
		<path id="Vector" d="M8 3.89062C5.73145 3.89062 3.89062 5.73047 3.89062 8C3.89062 10.2695 5.73145 12.1094 8 12.1094C10.2686 12.1094 12.1094 10.2695 12.1094 8C12.1094 5.73047 10.2686 3.89062 8 3.89062ZM8 10.666C6.52832 10.666 5.33398 9.47266 5.33398 8C5.33398 6.52734 6.52832 5.33398 8 5.33398C9.47168 5.33398 10.666 6.52734 10.666 8C10.666 9.47266 9.47168 10.666 8 10.666Z" fill="#FFFFFF" fill-opacity="1.000000" fill-rule="nonzero"/>
		<path id="Vector" d="M13.2314 3.72852C13.2314 4.25977 12.7998 4.6875 12.2715 4.6875C11.7402 4.6875 11.3125 4.25781 11.3125 3.72852C11.3125 3.19727 11.7441 2.76953 12.2715 2.76953C12.7998 2.76953 13.2314 3.20117 13.2314 3.72852Z" fill="#FFFFFF" fill-opacity="1.000000" fill-rule="nonzero"/>
	</g>
</svg>
