<svg width="16.000000" height="16.000000" viewBox="0 0 16 16" fill="none" xmlns="http://www.w3.org/2000/svg" xmlns:xlink="http://www.w3.org/1999/xlink">
	<desc>
			Created with Pixso.
	</desc>
	<defs/>
	<path id="Vector" d="M14.8154 0L1.18164 0C0.52832 0 0 0.515625 0 1.15234L0 14.8438C0 15.4805 0.52832 16 1.18164 16L14.8154 16C15.4688 16 16 15.4805 16 14.8477L16 1.15234C16 0.515625 15.4688 0 14.8154 0ZM4.74707 13.6348L2.37207 13.6348L2.37207 5.99609L4.74707 5.99609L4.74707 13.6348ZM3.55957 4.95703C2.79688 4.95703 2.18164 4.33984 2.18164 3.58203C2.18164 2.82227 2.79688 2.20703 3.55957 2.20703C4.31836 2.20703 4.93457 2.82227 4.93457 3.58203C4.93457 4.33789 4.31836 4.95703 3.55957 4.95703ZM13.6348 13.6348L11.2627 13.6348L11.2627 9.92188C11.2627 9.03711 11.2471 7.89648 10.0283 7.89648C8.79395 7.89648 8.60645 8.86328 8.60645 9.85938L8.60645 13.6348L6.2373 13.6348L6.2373 5.99609L8.5127 5.99609L8.5127 7.04102L8.54395 7.04102C8.85938 6.44141 9.63477 5.80664 10.7871 5.80664C13.1904 5.80664 13.6348 7.38672 13.6348 9.44336L13.6348 13.6348Z" fill="#FFFFFF" fill-opacity="1.000000" fill-rule="nonzero"/>
</svg>
