<svg width="16.000000" height="15.570312" viewBox="0 0 16 15.5703" fill="none" xmlns="http://www.w3.org/2000/svg" xmlns:xlink="http://www.w3.org/1999/xlink">
	<desc>
			Created with Pixso.
	</desc>
	<defs/>
	<path id="Vector" d="M14.8154 0L1.18164 0C0.52832 0 0 0.501953 0 1.12207L0 14.4453C0 15.0654 0.52832 15.5703 1.18164 15.5703L14.8154 15.5703C15.4688 15.5703 16 15.0654 16 14.4482L16 1.12207C16 0.501953 15.4688 0 14.8154 0ZM4.74707 13.2686L2.37207 13.2686L2.37207 5.83594L4.74707 5.83594L4.74707 13.2686ZM3.55957 4.82324C2.79688 4.82324 2.18164 4.22363 2.18164 3.48535C2.18164 2.74609 2.79688 2.14746 3.55957 2.14746C4.31836 2.14746 4.93457 2.74609 4.93457 3.48535C4.93457 4.2207 4.31836 4.82324 3.55957 4.82324ZM13.6348 13.2686L11.2627 13.2686L11.2627 9.65527C11.2627 8.79492 11.2471 7.68457 10.0283 7.68457C8.79395 7.68457 8.60645 8.625 8.60645 9.59473L8.60645 13.2686L6.2373 13.2686L6.2373 5.83594L8.5127 5.83594L8.5127 6.85156L8.54395 6.85156C8.85938 6.26758 9.63477 5.65039 10.7871 5.65039C13.1904 5.65039 13.6348 7.18945 13.6348 9.19043L13.6348 13.2686Z" fill="#282938" fill-opacity="1.000000" fill-rule="nonzero"/>
</svg>
