<svg width="160.000000" height="32.404297" viewBox="0 0 160 32.4043" fill="none" xmlns="http://www.w3.org/2000/svg" xmlns:xlink="http://www.w3.org/1999/xlink">
	<desc>
			Created with Pixso.
	</desc>
	<defs>
		<clipPath id="clip3_335">
			<rect id="Logo" width="160.000000" height="32.405064" fill="white" fill-opacity="0"/>
		</clipPath>
	</defs>
	<rect id="Logo" width="160.000000" height="32.405064" fill="#FFFFFF" fill-opacity="0"/>
	<g clip-path="url(#clip3_335)">
		<path id="t" d="M159.716 24.75L159.716 28.709L156.395 28.709C152.851 28.5977 150.957 26.6836 150.957 23.0879L150.957 14.0449L148.638 14.0449L148.638 10.5723L150.957 10.5723L150.957 6.68359L155.858 6.68359L155.858 10.5312L159.604 10.5312L159.604 13.9941L155.858 13.9941L155.858 22.6035C155.858 23.7676 156.091 24.6992 157.883 24.6992L159.716 24.75Z" fill="#FFFFFF" fill-opacity="1.000000" fill-rule="nonzero"/>
		<path id="e" d="M129.104 19.6758L129.104 19.4121C129.051 18.248 129.229 17.084 129.626 15.9883C130.023 14.8906 130.634 13.8848 131.421 13.0254C132.208 12.1641 133.157 11.4688 134.215 10.9766C135.271 10.4844 136.415 10.2051 137.58 10.1562C137.812 10.1562 138.056 10.1562 138.289 10.1562C142.917 10.1562 146.978 12.8496 146.978 19.2695L146.978 20.6367L134.116 20.6367C134.248 23.5938 135.849 25.2656 138.542 25.2656C140.861 25.2656 141.944 24.252 142.259 22.7734L146.886 22.7734C146.319 26.6328 143.24 28.7793 138.37 28.7793C133.022 28.7383 129.104 25.3555 129.104 19.6758ZM142.157 17.5391C141.985 14.8457 140.628 13.5488 138.269 13.5488C135.909 13.5488 134.552 15.0078 134.218 17.5391L142.157 17.5391Z" fill="#FFFFFF" fill-opacity="1.000000" fill-rule="nonzero"/>
		<path id="e" d="M109.093 19.6758L109.093 19.4121C109.04 18.248 109.217 17.0859 109.613 15.9922C110.01 14.8965 110.617 13.8906 111.403 13.0312C112.188 12.1719 113.135 11.4766 114.189 10.9824C115.244 10.4883 116.386 10.209 117.549 10.1562C117.782 10.1562 118.024 10.1562 118.258 10.1562C122.886 10.1562 126.956 12.8496 126.956 19.2695L126.956 20.6367L114.105 20.6367C114.237 23.5938 115.838 25.2656 118.531 25.2656C120.851 25.2656 121.934 24.252 122.248 22.7734L126.875 22.7734C126.298 26.6328 123.22 28.7793 118.349 28.7793C113.012 28.7383 109.093 25.3555 109.093 19.6758ZM122.146 17.5391C121.975 14.8457 120.617 13.5488 118.258 13.5488C115.898 13.5488 114.582 15.0469 114.207 17.5293L122.146 17.5391Z" fill="#FFFFFF" fill-opacity="1.000000" fill-rule="nonzero"/>
		<path id="w" d="M81.0127 10.5312L86.1973 10.5312L89.3672 22.541L92.8408 10.5312L96.8916 10.5312L100.03 22.541L103.372 10.5312L108.121 10.5312L102.491 28.375L97.6309 28.375L94.5928 17.1738L91.3418 28.375L86.4199 28.375L81.0127 10.5312Z" fill="#FFFFFF" fill-opacity="1.000000" fill-rule="nonzero"/>
		<path id="s" d="M64.5371 22.7656L69.165 22.7656C69.3779 24.375 70.1777 25.2969 72.3047 25.2969C74.208 25.2969 75.0889 24.5781 75.0889 23.3535C75.0889 22.127 74.0762 21.6113 71.4844 21.2461C66.7344 20.5273 64.9014 19.1602 64.9014 15.6758C64.9014 11.9609 68.3047 10.1172 71.9902 10.1172C75.9502 10.1172 78.9375 11.5547 79.3623 15.6562L74.7949 15.6562C74.7666 15.3398 74.6748 15.0312 74.5254 14.75C74.377 14.4688 74.1738 14.2188 73.9277 14.0176C73.6816 13.8145 73.3984 13.6621 73.0938 13.5703C72.7891 13.4785 72.4688 13.4473 72.1523 13.4785L72 13.4785C70.4004 13.4785 69.4688 14.2285 69.4688 15.3223C69.4688 16.416 70.3291 16.8926 72.9424 17.2656C77.3779 17.9355 79.8584 19.0586 79.8584 22.877C79.8584 26.6953 77.0537 28.7402 72.3545 28.7402C67.6562 28.7402 64.6689 26.623 64.5371 22.7656Z" fill="#FFFFFF" fill-opacity="1.000000" fill-rule="nonzero"/>
		<path id="n" d="M44.8711 10.5312L49.7725 10.5312L49.7725 13.3574C50.3252 12.3203 51.1631 11.4629 52.1885 10.8887C53.2129 10.3145 54.3818 10.0469 55.5547 10.1172C59.0283 10.1172 61.5498 12.2324 61.5498 17.0625L61.5498 28.416L56.709 28.416L56.709 17.7715C56.709 15.3516 55.7676 14.1973 53.5801 14.1973C53.1172 14.1562 52.6523 14.209 52.21 14.3496C51.7676 14.4883 51.3564 14.7148 51.002 15.0137C50.6475 15.3145 50.3555 15.6797 50.1426 16.0918C49.9297 16.5039 49.8008 16.9551 49.7627 17.418C49.7373 17.6328 49.7373 17.8496 49.7627 18.0664L49.7627 28.375L44.8711 28.375L44.8711 10.5312Z" fill="#FFFFFF" fill-opacity="1.000000" fill-rule="nonzero"/>
		<path id="i" d="M35.4131 6.04492C35.3945 5.55664 35.5225 5.07422 35.7793 4.6582C36.0361 4.24023 36.4111 3.91016 36.8555 3.70703C37.3008 3.50391 37.7959 3.4375 38.2783 3.51562C38.7607 3.5957 39.21 3.81445 39.5674 4.14844C39.9248 4.48242 40.1758 4.91406 40.2871 5.39062C40.3994 5.86523 40.3672 6.36523 40.1953 6.82227C40.0244 7.2793 39.7207 7.67773 39.3232 7.96289C38.9268 8.24805 38.4531 8.4082 37.9648 8.42383L37.873 8.42383C37.5703 8.44336 37.2656 8.40234 36.9785 8.30469C36.6914 8.20508 36.4258 8.05078 36.1982 7.84961C35.9707 7.64844 35.7852 7.4043 35.6514 7.13086C35.5186 6.85742 35.4414 6.56055 35.4229 6.25781C35.4141 6.1875 35.4111 6.11523 35.4131 6.04492ZM35.4131 10.5312L40.3643 10.5312L40.3643 28.375L35.4326 28.375L35.4131 10.5312Z" fill="#FFFFFF" fill-opacity="1.000000" fill-rule="nonzero"/>
		<path id="F" d="M16.749 3.99023L32.4043 3.99023L32.4043 8.31445L22.2783 8.31445L22.2783 14.7656L30.2988 14.7656L30.2988 18.9277L22.2676 18.9277L22.2676 28.375L16.749 28.375L16.749 3.99023Z" fill="#FFFFFF" fill-opacity="1.000000" fill-rule="nonzero"/>
		<path id="{" d="M7.30078 11.9688C7.30078 13.498 7.30078 15.3613 5.19531 16.1211C7.35156 16.8613 7.30078 18.4297 7.30078 20.0703L7.30078 26.1465C7.30078 27.3008 7.7666 28 8.59766 28.1719C8.78027 28.2344 8.97168 28.2617 9.16504 28.2539L11.1895 28.2539L11.1895 32.3047L7.84766 32.3047C4.2832 32.3047 2.31934 30.2793 2.31934 26.5215L2.31934 19.332C2.29395 18.9629 2.13086 18.6172 1.86328 18.3613C1.59473 18.1055 1.24121 17.9609 0.871094 17.9551L0 17.9551L0 14.4004L0.871094 14.4004C1.24805 14.3945 1.60938 14.2441 1.87891 13.9805C2.14844 13.7168 2.30566 13.3594 2.31934 12.9824L2.31934 5.69141C2.31934 1.99414 4.24316 0 7.84766 0L11.2207 0L11.2207 3.99023L9.19531 3.99023C9.00195 3.99023 8.81055 4.02148 8.62793 4.08008C7.79785 4.29297 7.33203 4.98242 7.33203 6.10547L7.30078 11.9688Z" fill="#FFFFFF" fill-opacity="1.000000" fill-rule="nonzero"/>
	</g>
</svg>
