<svg width="122.000000" height="24.708984" viewBox="0 0 122 24.709" fill="none" xmlns="http://www.w3.org/2000/svg" xmlns:xlink="http://www.w3.org/1999/xlink">
	<desc>
			Created with Pixso.
	</desc>
	<defs>
		<clipPath id="clip3_183">
			<rect id="Logo" width="122.000000" height="24.708860" fill="white" fill-opacity="0"/>
		</clipPath>
	</defs>
	<rect id="Logo" width="122.000000" height="24.708860" fill="#FFFFFF" fill-opacity="0"/>
	<g clip-path="url(#clip3_183)">
		<path id="t" d="M121.784 18.8721L121.784 21.8906L119.252 21.8906C116.549 21.8057 115.105 20.3467 115.105 17.6055L115.105 10.71L113.337 10.71L113.337 8.06152L115.105 8.06152L115.105 5.09668L118.843 5.09668L118.843 8.03125L121.699 8.03125L121.699 10.6719L118.843 10.6719L118.843 17.2354C118.843 18.123 119.02 18.833 120.387 18.833L121.784 18.8721Z" fill="#FFFFFF" fill-opacity="1.000000" fill-rule="nonzero"/>
		<path id="e" d="M98.4414 15.0029L98.4414 14.8027C98.4014 13.9141 98.5361 13.0273 98.8398 12.1914C99.1426 11.3555 99.6074 10.5879 100.208 9.93262C100.809 9.27637 101.532 8.74609 102.338 8.37109C103.145 7.99512 104.017 7.7832 104.904 7.74512C105.082 7.74512 105.268 7.74512 105.445 7.74512C108.974 7.74512 112.07 9.79883 112.07 14.6943L112.07 15.7373L102.264 15.7373C102.364 17.9912 103.584 19.2656 105.638 19.2656C107.406 19.2656 108.232 18.4932 108.472 17.3662L112.001 17.3662C111.568 20.3076 109.221 21.9453 105.507 21.9453C101.43 21.9141 98.4414 19.335 98.4414 15.0029ZM108.395 13.374C108.264 11.3203 107.229 10.332 105.43 10.332C103.631 10.332 102.596 11.4434 102.341 13.374L108.395 13.374Z" fill="#FFFFFF" fill-opacity="1.000000" fill-rule="nonzero"/>
		<path id="e" d="M83.1836 15.0029L83.1836 14.8027C83.1436 13.916 83.2783 13.0293 83.5801 12.1953C83.8828 11.3604 84.3457 10.5928 84.9453 9.9375C85.5439 9.28223 86.2656 8.75098 87.0703 8.375C87.874 7.99902 88.7441 7.78516 89.6309 7.74512C89.8086 7.74512 89.9941 7.74512 90.1719 7.74512C93.7002 7.74512 96.8047 9.79883 96.8047 14.6943L96.8047 15.7373L87.0059 15.7373C87.1064 17.9912 88.3262 19.2656 90.3799 19.2656C92.1484 19.2656 92.9746 18.4932 93.2139 17.3662L96.7432 17.3662C96.3027 20.3076 93.9551 21.9453 90.2412 21.9453C86.1719 21.9141 83.1836 19.335 83.1836 15.0029ZM93.1367 13.374C93.0059 11.3203 91.9707 10.332 90.1719 10.332C88.373 10.332 87.3691 11.4746 87.083 13.3662L93.1367 13.374Z" fill="#FFFFFF" fill-opacity="1.000000" fill-rule="nonzero"/>
		<path id="w" d="M61.7725 8.03027L65.7256 8.03027L68.1426 17.1885L70.791 8.03027L73.8799 8.03027L76.2734 17.1885L78.8213 8.03027L82.4434 8.03027L78.1494 21.6357L74.4434 21.6357L72.127 13.0957L69.6484 21.6357L65.8955 21.6357L61.7725 8.03027Z" fill="#FFFFFF" fill-opacity="1.000000" fill-rule="nonzero"/>
		<path id="s" d="M49.209 17.3584L52.7373 17.3584C52.8994 18.5859 53.5098 19.2881 55.1318 19.2881C56.583 19.2881 57.2549 18.7402 57.2549 17.8057C57.2549 16.8721 56.4824 16.4775 54.5059 16.2002C50.8848 15.6514 49.4873 14.6094 49.4873 11.9531C49.4873 9.11914 52.0811 7.71387 54.8916 7.71387C57.9111 7.71387 60.1895 8.81055 60.5137 11.9375L57.0312 11.9375C57.0088 11.6953 56.9385 11.4609 56.8252 11.2461C56.7119 11.0312 56.5566 10.8418 56.3691 10.6875C56.1816 10.5332 55.9658 10.417 55.7334 10.3467C55.501 10.2764 55.2568 10.2529 55.0156 10.2773L54.8994 10.2773C53.6797 10.2773 52.9697 10.8486 52.9697 11.6826C52.9697 12.5166 53.626 12.8799 55.6182 13.165C59 13.6748 60.8916 14.5322 60.8916 17.4434C60.8916 20.3535 58.7529 21.9141 55.1699 21.9141C51.5869 21.9141 49.3096 20.2998 49.209 17.3584Z" fill="#FFFFFF" fill-opacity="1.000000" fill-rule="nonzero"/>
		<path id="n" d="M34.2139 8.03027L37.9512 8.03027L37.9512 10.1846C38.3721 9.39355 39.0117 8.74023 39.793 8.30273C40.5752 7.86426 41.4658 7.66016 42.3604 7.71387C45.0088 7.71387 46.9316 9.32715 46.9316 13.0107L46.9316 21.666L43.2402 21.666L43.2402 13.5508C43.2402 11.7051 42.5225 10.8252 40.8545 10.8252C40.502 10.7949 40.1465 10.834 39.8096 10.9404C39.4717 11.0479 39.1592 11.2197 38.8887 11.4482C38.6182 11.6768 38.3955 11.9561 38.2334 12.2705C38.0713 12.585 37.9727 12.9277 37.9434 13.2803C37.9238 13.4443 37.9238 13.6104 37.9434 13.7744L37.9434 21.6357L34.2139 21.6357L34.2139 8.03027Z" fill="#FFFFFF" fill-opacity="1.000000" fill-rule="nonzero"/>
		<path id="i" d="M27.002 4.60938C26.9883 4.2373 27.0859 3.86914 27.2822 3.55176C27.4775 3.23438 27.7637 2.98242 28.1025 2.82715C28.4414 2.67285 28.8193 2.62207 29.1875 2.68164C29.5557 2.74121 29.8975 2.90918 30.1699 3.16309C30.4424 3.41797 30.6338 3.74707 30.7188 4.11035C30.8047 4.47266 30.7803 4.85352 30.6494 5.20215C30.5186 5.55176 30.2871 5.85449 29.9844 6.07129C29.6816 6.28906 29.3203 6.41211 28.9482 6.42383L28.8789 6.42383C28.6475 6.43848 28.415 6.4082 28.1963 6.33301C27.9766 6.25781 27.7744 6.13965 27.6016 5.98633C27.4277 5.83301 27.2861 5.64648 27.1846 5.4375C27.083 5.22949 27.0234 5.00293 27.0098 4.77148C27.0039 4.71777 27.001 4.66406 27.002 4.60938ZM27.002 8.03027L30.7783 8.03027L30.7783 21.6357L27.0176 21.6357L27.002 8.03027Z" fill="#FFFFFF" fill-opacity="1.000000" fill-rule="nonzero"/>
		<path id="F" d="M12.7715 3.04199L24.709 3.04199L24.709 6.33887L16.9873 6.33887L16.9873 11.2578L23.1025 11.2578L23.1025 14.4316L16.9795 14.4316L16.9795 21.6357L12.7715 21.6357L12.7715 3.04199Z" fill="#FFFFFF" fill-opacity="1.000000" fill-rule="nonzero"/>
		<path id="{" d="M5.56738 9.12695C5.56738 10.293 5.56738 11.7139 3.96094 12.293C5.60547 12.8564 5.56738 14.0527 5.56738 15.3037L5.56738 19.9365C5.56738 20.8174 5.92285 21.3496 6.55566 21.4814C6.69434 21.5283 6.84082 21.5488 6.98828 21.543L8.53223 21.543L8.53223 24.6318L5.98438 24.6318C3.2666 24.6318 1.76855 23.0869 1.76855 20.2227L1.76855 14.7402C1.74902 14.459 1.625 14.1953 1.4209 14.001C1.21582 13.8057 0.946289 13.6953 0.664062 13.6904L0 13.6904L0 10.9805L0.664062 10.9805C0.952148 10.9766 1.22656 10.8613 1.43262 10.6602C1.6377 10.459 1.75879 10.1865 1.76855 9.89941L1.76855 4.33984C1.76855 1.52148 3.23535 0 5.98438 0L8.55566 0L8.55566 3.04199L7.01074 3.04199C6.86426 3.04297 6.71875 3.06641 6.5791 3.11133C5.94531 3.27344 5.59082 3.79883 5.59082 4.65625L5.56738 9.12695Z" fill="#FFFFFF" fill-opacity="1.000000" fill-rule="nonzero"/>
	</g>
</svg>
