<svg width="122.000000" height="24.708984" viewBox="0 0 122 24.709" fill="none" xmlns="http://www.w3.org/2000/svg" xmlns:xlink="http://www.w3.org/1999/xlink">
	<desc>
			Created with Pixso.
	</desc>
	<defs>
		<clipPath id="clip3_123">
			<rect id="Logo" width="122.000000" height="24.708860" fill="white" fill-opacity="0"/>
		</clipPath>
	</defs>
	<rect id="Logo" width="122.000000" height="24.708860" fill="#FFFFFF" fill-opacity="0"/>
	<g clip-path="url(#clip3_123)">
		<path id="t" d="M121.783 18.8721L121.783 21.8906L119.25 21.8906C116.549 21.8057 115.104 20.3467 115.104 17.6055L115.104 10.71L113.336 10.71L113.336 8.06152L115.104 8.06152L115.104 5.09668L118.842 5.09668L118.842 8.03125L121.699 8.03125L121.699 10.6719L118.842 10.6719L118.842 17.2354C118.842 18.123 119.02 18.833 120.385 18.833L121.783 18.8721Z" fill="#FFFFFF" fill-opacity="1.000000" fill-rule="nonzero"/>
		<path id="e" d="M98.4434 15.0029L98.4434 14.8027C98.4023 13.9141 98.5371 13.0273 98.8398 12.1914C99.1445 11.3555 99.6094 10.5879 100.209 9.93262C100.809 9.27637 101.533 8.74609 102.34 8.37109C103.145 7.99512 104.018 7.7832 104.906 7.74512C105.084 7.74512 105.268 7.74512 105.445 7.74512C108.975 7.74512 112.07 9.79883 112.07 14.6943L112.07 15.7373L102.266 15.7373C102.365 17.9912 103.586 19.2656 105.639 19.2656C107.406 19.2656 108.234 18.4932 108.473 17.3662L112.002 17.3662C111.568 20.3076 109.223 21.9453 105.508 21.9453C101.432 21.9141 98.4434 19.335 98.4434 15.0029ZM108.396 13.374C108.264 11.3203 107.23 10.332 105.43 10.332C103.631 10.332 102.598 11.4434 102.342 13.374L108.396 13.374Z" fill="#FFFFFF" fill-opacity="1.000000" fill-rule="nonzero"/>
		<path id="e" d="M83.1855 15.0029L83.1855 14.8027C83.1445 13.916 83.2793 13.0293 83.582 12.1953C83.8828 11.3604 84.3477 10.5928 84.9453 9.9375C85.5449 9.28223 86.2676 8.75098 87.0703 8.375C87.875 7.99902 88.7461 7.78516 89.6328 7.74512C89.8105 7.74512 89.9961 7.74512 90.1719 7.74512C93.7012 7.74512 96.8047 9.79883 96.8047 14.6943L96.8047 15.7373L87.0078 15.7373C87.1074 17.9912 88.3281 19.2656 90.3809 19.2656C92.1504 19.2656 92.9766 18.4932 93.2148 17.3662L96.7441 17.3662C96.3027 20.3076 93.957 21.9453 90.2422 21.9453C86.1738 21.9141 83.1855 19.335 83.1855 15.0029ZM93.1387 13.374C93.0059 11.3203 91.9727 10.332 90.1719 10.332C88.373 10.332 87.3691 11.4746 87.084 13.3662L93.1387 13.374Z" fill="#FFFFFF" fill-opacity="1.000000" fill-rule="nonzero"/>
		<path id="w" d="M61.7715 8.03027L65.7246 8.03027L68.1426 17.1885L70.791 8.03027L73.8789 8.03027L76.2734 17.1885L78.8203 8.03027L82.4414 8.03027L78.1484 21.6357L74.4434 21.6357L72.127 13.0957L69.6465 21.6357L65.8945 21.6357L61.7715 8.03027Z" fill="#FFFFFF" fill-opacity="1.000000" fill-rule="nonzero"/>
		<path id="s" d="M49.209 17.3584L52.7383 17.3584C52.9004 18.5859 53.5098 19.2881 55.1309 19.2881C56.584 19.2881 57.2539 18.7402 57.2539 17.8057C57.2539 16.8721 56.4824 16.4775 54.5059 16.2002C50.8848 15.6514 49.4863 14.6094 49.4863 11.9531C49.4863 9.11914 52.082 7.71387 54.8926 7.71387C57.9121 7.71387 60.1895 8.81055 60.5137 11.9375L57.0312 11.9375C57.0078 11.6953 56.9395 11.4609 56.8262 11.2461C56.7109 11.0312 56.5566 10.8418 56.3691 10.6875C56.1816 10.5332 55.9668 10.417 55.7344 10.3467C55.502 10.2764 55.2578 10.2529 55.0156 10.2773L54.9004 10.2773C53.6797 10.2773 52.9688 10.8486 52.9688 11.6826C52.9688 12.5166 53.625 12.8799 55.6172 13.165C59 13.6748 60.8926 14.5322 60.8926 17.4434C60.8926 20.3535 58.752 21.9141 55.1699 21.9141C51.5879 21.9141 49.3086 20.2998 49.209 17.3584Z" fill="#FFFFFF" fill-opacity="1.000000" fill-rule="nonzero"/>
		<path id="n" d="M34.2148 8.03027L37.9512 8.03027L37.9512 10.1846C38.373 9.39355 39.0117 8.74023 39.7949 8.30273C40.5762 7.86426 41.4668 7.66016 42.3613 7.71387C45.0098 7.71387 46.9316 9.32715 46.9316 13.0107L46.9316 21.666L43.2422 21.666L43.2422 13.5508C43.2422 11.7051 42.5234 10.8252 40.8555 10.8252C40.502 10.7949 40.1484 10.834 39.8105 10.9404C39.4727 11.0479 39.1602 11.2197 38.8906 11.4482C38.6191 11.6768 38.3965 11.9561 38.2344 12.2705C38.0723 12.585 37.9727 12.9277 37.9434 13.2803C37.9258 13.4443 37.9258 13.6104 37.9434 13.7744L37.9434 21.6357L34.2148 21.6357L34.2148 8.03027Z" fill="#FFFFFF" fill-opacity="1.000000" fill-rule="nonzero"/>
		<path id="i" d="M27.002 4.60938C26.9883 4.2373 27.0859 3.86914 27.2812 3.55176C27.4766 3.23438 27.7617 2.98242 28.1016 2.82715C28.4414 2.67285 28.8184 2.62207 29.1855 2.68164C29.5547 2.74121 29.8965 2.90918 30.1699 3.16309C30.4414 3.41797 30.6328 3.74707 30.7188 4.11035C30.8027 4.47266 30.7793 4.85352 30.6484 5.20215C30.5176 5.55176 30.2852 5.85449 29.9824 6.07129C29.6797 6.28906 29.3203 6.41211 28.9473 6.42383L28.877 6.42383C28.6465 6.43848 28.4141 6.4082 28.1953 6.33301C27.9766 6.25781 27.7734 6.13965 27.5996 5.98633C27.4258 5.83301 27.2852 5.64648 27.1836 5.4375C27.082 5.22949 27.0234 5.00293 27.0098 4.77148C27.002 4.71777 27 4.66406 27.002 4.60938ZM27.002 8.03027L30.7773 8.03027L30.7773 21.6357L27.0176 21.6357L27.002 8.03027Z" fill="#FFFFFF" fill-opacity="1.000000" fill-rule="nonzero"/>
		<path id="F" d="M12.7715 3.04199L24.709 3.04199L24.709 6.33887L16.9883 6.33887L16.9883 11.2578L23.1035 11.2578L23.1035 14.4316L16.9805 14.4316L16.9805 21.6357L12.7715 21.6357L12.7715 3.04199Z" fill="#FFFFFF" fill-opacity="1.000000" fill-rule="nonzero"/>
		<path id="{" d="M5.56641 9.12695C5.56641 10.293 5.56641 11.7139 3.96094 12.293C5.60547 12.8564 5.56641 14.0527 5.56641 15.3037L5.56641 19.9365C5.56641 20.8174 5.92188 21.3496 6.55469 21.4814C6.69531 21.5283 6.8418 21.5488 6.98828 21.543L8.5332 21.543L8.5332 24.6318L5.98438 24.6318C3.26562 24.6318 1.76758 23.0869 1.76758 20.2227L1.76758 14.7402C1.74805 14.459 1.625 14.1953 1.41992 14.001C1.2168 13.8057 0.945312 13.6953 0.664062 13.6904L0 13.6904L0 10.9805L0.664062 10.9805C0.951172 10.9766 1.22656 10.8613 1.43164 10.6602C1.63867 10.459 1.75781 10.1865 1.76758 9.89941L1.76758 4.33984C1.76758 1.52148 3.23438 0 5.98438 0L8.55469 0L8.55469 3.04199L7.01172 3.04199C6.86523 3.04297 6.71875 3.06641 6.57812 3.11133C5.94531 3.27344 5.58984 3.79883 5.58984 4.65625L5.56641 9.12695Z" fill="#FFFFFF" fill-opacity="1.000000" fill-rule="nonzero"/>
	</g>
</svg>
