<svg width="122.000000" height="24.708862" viewBox="0 0 122 24.7089" fill="none" xmlns="http://www.w3.org/2000/svg" xmlns:xlink="http://www.w3.org/1999/xlink">
	<desc>
			Created with Pixso.
	</desc>
	<defs>
		<clipPath id="clip1401_834">
			<rect id="Logo" width="122.000000" height="24.708860" fill="white" fill-opacity="0"/>
		</clipPath>
	</defs>
	<rect id="Logo" width="122.000000" height="24.708860" fill="#FFFFFF" fill-opacity="0"/>
	<g clip-path="url(#clip1401_834)">
		<path id="t" d="M121.784 18.8713L121.784 21.8905L119.251 21.8905C116.548 21.8055 115.104 20.3462 115.104 17.6051L115.104 10.7097L113.336 10.7097L113.336 8.06128L115.104 8.06128L115.104 5.09619L118.842 5.09619L118.842 8.0304L121.699 8.0304L121.699 10.6711L118.842 10.6711L118.842 17.2344C118.842 18.1224 119.02 18.8328 120.386 18.8328L121.784 18.8713Z" fill="#FFFFFF" fill-opacity="1.000000" fill-rule="nonzero"/>
		<path id="e" d="M98.4414 15.0028L98.4414 14.8021C98.4014 13.9141 98.5361 13.0267 98.8394 12.1909C99.1426 11.3552 99.6079 10.5875 100.208 9.93188C100.809 9.27625 101.532 8.74561 102.338 8.37024C103.144 7.99487 104.016 7.78235 104.904 7.74463C105.082 7.74463 105.268 7.74463 105.445 7.74463C108.974 7.74463 112.07 9.79858 112.07 14.694L112.07 15.7365L102.264 15.7365C102.364 17.9911 103.584 19.2651 105.638 19.2651C107.406 19.2651 108.232 18.493 108.472 17.3656L112 17.3656C111.568 20.3075 109.221 21.9445 105.507 21.9445C101.43 21.9136 98.4414 19.3346 98.4414 15.0028ZM108.395 13.3737C108.263 11.3197 107.229 10.3313 105.43 10.3313C103.63 10.3313 102.596 11.4432 102.341 13.3737L108.395 13.3737Z" fill="#FFFFFF" fill-opacity="1.000000" fill-rule="nonzero"/>
		<path id="e" d="M83.1836 15.0028L83.1836 14.8021C83.1436 13.9153 83.2778 13.0292 83.5801 12.1943C83.8823 11.3596 84.3462 10.5927 84.9448 9.93726C85.5439 9.28174 86.2656 8.75073 87.0698 8.37451C87.874 7.99829 88.7441 7.7843 89.6313 7.74463C89.8086 7.74463 89.9941 7.74463 90.1719 7.74463C93.7007 7.74463 96.8047 9.79858 96.8047 14.694L96.8047 15.7365L87.0059 15.7365C87.1064 17.9911 88.3262 19.2651 90.3804 19.2651C92.1484 19.2651 92.9746 18.493 93.2139 17.3656L96.7427 17.3656C96.3027 20.3075 93.9551 21.9445 90.2412 21.9445C86.1719 21.9136 83.1836 19.3346 83.1836 15.0028ZM93.1367 13.3737C93.0054 11.3197 91.9707 10.3313 90.1719 10.3313C88.3726 10.3313 87.3687 11.4741 87.083 13.3658L93.1367 13.3737Z" fill="#FFFFFF" fill-opacity="1.000000" fill-rule="nonzero"/>
		<path id="w" d="M61.772 8.03027L65.7256 8.03027L68.1421 17.188L70.7905 8.03027L73.8794 8.03027L76.2729 17.188L78.8213 8.03027L82.4424 8.03027L78.1494 21.6356L74.4429 21.6356L72.1265 13.0956L69.6479 21.6356L65.8955 21.6356L61.772 8.03027Z" fill="#FFFFFF" fill-opacity="1.000000" fill-rule="nonzero"/>
		<path id="s" d="M49.209 17.3579L52.7378 17.3579C52.8999 18.5857 53.5098 19.2883 55.1313 19.2883C56.583 19.2883 57.2549 18.7401 57.2549 17.8058C57.2549 16.8715 56.4824 16.4777 54.5059 16.1997C50.8848 15.6515 49.4868 14.609 49.4868 11.9529C49.4868 9.11902 52.0815 7.71375 54.8921 7.71375C57.9111 7.71375 60.189 8.81018 60.5132 11.9374L57.0308 11.9374C57.0088 11.6957 56.939 11.4607 56.8252 11.2461C56.7114 11.0315 56.5566 10.8416 56.3691 10.6873C56.1821 10.5328 55.9658 10.4171 55.7334 10.3468C55.501 10.2765 55.2573 10.2528 55.0156 10.2773L54.8999 10.2773C53.6797 10.2773 52.9692 10.8486 52.9692 11.6826C52.9692 12.5165 53.6255 12.8794 55.6177 13.1652C59 13.6748 60.8916 14.5319 60.8916 17.4429C60.8916 20.3539 58.7529 21.9136 55.1699 21.9136C51.5874 21.9136 49.3096 20.2998 49.209 17.3579Z" fill="#FFFFFF" fill-opacity="1.000000" fill-rule="nonzero"/>
		<path id="n" d="M34.2139 8.03027L37.9512 8.03027L37.9512 10.1846C38.3726 9.3938 39.0117 8.7406 39.7935 8.30261C40.5747 7.86462 41.4658 7.66016 42.3599 7.71362C45.0088 7.71362 46.9312 9.32751 46.9312 13.0106L46.9312 21.6665L43.2402 21.6665L43.2402 13.5511C43.2402 11.7057 42.5225 10.8254 40.8545 10.8254C40.502 10.7948 40.147 10.834 39.8096 10.9409C39.4722 11.0479 39.1592 11.2203 38.8887 11.4484C38.6182 11.6765 38.3955 11.9559 38.2334 12.2704C38.0713 12.5848 37.9727 12.9282 37.9434 13.2809C37.9238 13.4451 37.9238 13.6108 37.9434 13.775L37.9434 21.6356L34.2139 21.6356L34.2139 8.03027Z" fill="#FFFFFF" fill-opacity="1.000000" fill-rule="nonzero"/>
		<path id="i" d="M27.0024 4.60974C26.9888 4.23706 27.0859 3.8689 27.2817 3.55164C27.4775 3.23425 27.7632 2.9823 28.1025 2.82739C28.4419 2.67261 28.8193 2.62183 29.187 2.68164C29.5552 2.74146 29.8975 2.90906 30.1699 3.16333C30.4429 3.41772 30.6338 3.74719 30.7192 4.11011C30.8042 4.47314 30.7803 4.85327 30.6494 5.20239C30.5186 5.55151 30.2871 5.854 29.9839 6.07153C29.6812 6.28906 29.3208 6.41187 28.9482 6.42432L28.8784 6.42432C28.6475 6.43896 28.4155 6.40771 28.1963 6.33252C27.9771 6.25732 27.7749 6.13965 27.6011 5.98608C27.4277 5.83264 27.2861 5.64624 27.1846 5.43799C27.083 5.22961 27.0239 5.00317 27.0098 4.77185C27.0034 4.71802 27.001 4.66394 27.0024 4.60974ZM27.0024 8.0304L30.7778 8.0304L30.7778 21.6356L27.0176 21.6356L27.0024 8.0304Z" fill="#FFFFFF" fill-opacity="1.000000" fill-rule="nonzero"/>
		<path id="F" d="M12.7715 3.04224L24.709 3.04224L24.709 6.33936L16.9873 6.33936L16.9873 11.2579L23.103 11.2579L23.103 14.4315L16.9795 14.4315L16.9795 21.6356L12.7715 21.6356L12.7715 3.04224Z" fill="#FFFFFF" fill-opacity="1.000000" fill-rule="nonzero"/>
		<path id="{" d="M5.56738 9.12683C5.56738 10.2927 5.56738 11.7135 3.96094 12.2926C5.60596 12.8563 5.56738 14.0532 5.56738 15.3041L5.56738 19.937C5.56738 20.8173 5.92236 21.35 6.55566 21.4813C6.69482 21.5282 6.84131 21.5492 6.98779 21.5431L8.53223 21.5431L8.53223 24.6316L5.98438 24.6316C3.26611 24.6316 1.76807 23.0874 1.76807 20.2227L1.76807 14.7404C1.74902 14.459 1.625 14.1949 1.42041 14.0005C1.21582 13.8062 0.946289 13.6954 0.664062 13.6903L0 13.6903L0 10.98L0.664062 10.98C0.95166 10.9762 1.22705 10.8618 1.43262 10.6605C1.63818 10.4592 1.7583 10.1865 1.76807 9.89905L1.76807 4.33948C1.76807 1.52112 3.23535 0 5.98438 0L8.55566 0L8.55566 3.04224L7.01123 3.04224C6.86426 3.04272 6.71826 3.06616 6.57861 3.11182C5.9458 3.27393 5.59033 3.79895 5.59033 4.65613L5.56738 9.12683Z" fill="#FFFFFF" fill-opacity="1.000000" fill-rule="nonzero"/>
	</g>
</svg>
