<svg width="160.000000" height="32.405273" viewBox="0 0 160 32.4053" fill="none" xmlns="http://www.w3.org/2000/svg" xmlns:xlink="http://www.w3.org/1999/xlink">
	<desc>
			Created with Pixso.
	</desc>
	<defs>
		<clipPath id="clip3_599">
			<rect id="Logo" width="160.000000" height="32.405064" fill="white" fill-opacity="0"/>
		</clipPath>
	</defs>
	<rect id="Logo" width="160.000000" height="32.405064" fill="#FFFFFF" fill-opacity="0"/>
	<g clip-path="url(#clip3_599)">
		<path id="t" d="M159.717 24.749L159.717 28.709L156.396 28.709C152.852 28.5977 150.957 26.6836 150.957 23.0889L150.957 14.0459L148.639 14.0459L148.639 10.5723L150.957 10.5723L150.957 6.68359L155.859 6.68359L155.859 10.5312L159.605 10.5312L159.605 13.9951L155.859 13.9951L155.859 22.6025C155.859 23.7676 156.092 24.6992 157.885 24.6992L159.717 24.749Z" fill="#FFFFFF" fill-opacity="1.000000" fill-rule="nonzero"/>
		<path id="e" d="M129.104 19.6758L129.104 19.4131C129.051 18.248 129.227 17.085 129.625 15.9883C130.021 14.8926 130.633 13.8857 131.42 13.0254C132.207 12.166 133.156 11.4697 134.213 10.9775C135.27 10.4854 136.414 10.207 137.578 10.1572C137.812 10.1572 138.055 10.1572 138.287 10.1572C142.916 10.1572 146.977 12.8506 146.977 19.2715L146.977 20.6387L134.115 20.6387C134.248 23.5947 135.848 25.2656 138.541 25.2656C140.859 25.2656 141.943 24.2539 142.258 22.7754L146.885 22.7754C146.318 26.6328 143.24 28.7803 138.369 28.7803C133.021 28.7393 129.104 25.3574 129.104 19.6758ZM142.156 17.5391C141.984 14.8457 140.627 13.5498 138.268 13.5498C135.908 13.5498 134.551 15.0078 134.217 17.5391L142.156 17.5391Z" fill="#FFFFFF" fill-opacity="1.000000" fill-rule="nonzero"/>
		<path id="e" d="M109.094 19.6758L109.094 19.4131C109.041 18.25 109.217 17.0879 109.613 15.9932C110.01 14.8984 110.617 13.8926 111.402 13.0332C112.188 12.1729 113.135 11.4766 114.189 10.9834C115.244 10.4902 116.387 10.209 117.549 10.1572C117.781 10.1572 118.025 10.1572 118.258 10.1572C122.885 10.1572 126.957 12.8506 126.957 19.2715L126.957 20.6387L114.105 20.6387C114.238 23.5947 115.838 25.2656 118.531 25.2656C120.85 25.2656 121.934 24.2539 122.248 22.7754L126.875 22.7754C126.299 26.6328 123.221 28.7803 118.35 28.7803C113.012 28.7393 109.094 25.3574 109.094 19.6758ZM122.146 17.5391C121.975 14.8457 120.617 13.5498 118.258 13.5498C115.898 13.5498 114.582 15.0488 114.207 17.5293L122.146 17.5391Z" fill="#FFFFFF" fill-opacity="1.000000" fill-rule="nonzero"/>
		<path id="w" d="M81.0117 10.5312L86.1973 10.5312L89.3652 22.541L92.8398 10.5312L96.8906 10.5312L100.029 22.541L103.371 10.5312L108.121 10.5312L102.49 28.374L97.6289 28.374L94.5918 17.1738L91.3418 28.374L86.4199 28.374L81.0117 10.5312Z" fill="#FFFFFF" fill-opacity="1.000000" fill-rule="nonzero"/>
		<path id="s" d="M64.5371 22.7646L69.1641 22.7646C69.377 24.374 70.1777 25.2959 72.3047 25.2959C74.207 25.2959 75.0898 24.5771 75.0898 23.3516C75.0898 22.126 74.0762 21.6104 71.4844 21.2451C66.7344 20.5264 64.9023 19.1592 64.9023 15.6758C64.9023 11.959 68.3047 10.1162 71.9902 10.1162C75.9492 10.1162 78.9375 11.5537 79.3633 15.6553L74.7949 15.6553C74.7656 15.3389 74.6738 15.0303 74.5254 14.749C74.377 14.4678 74.1738 14.2188 73.9277 14.0156C73.6816 13.8135 73.3984 13.6621 73.0938 13.5693C72.7891 13.4775 72.4688 13.4463 72.1523 13.4785L72 13.4785C70.4004 13.4785 69.4688 14.2275 69.4688 15.3213C69.4688 16.415 70.3301 16.8906 72.9414 17.2656C77.377 17.9336 79.8594 19.0576 79.8594 22.876C79.8594 26.6934 77.0527 28.7393 72.3555 28.7393C67.6562 28.7393 64.668 26.6221 64.5371 22.7646Z" fill="#FFFFFF" fill-opacity="1.000000" fill-rule="nonzero"/>
		<path id="n" d="M44.8711 10.5312L49.7715 10.5312L49.7715 13.3564C50.3242 12.3203 51.1641 11.4629 52.1875 10.8887C53.2129 10.3145 54.3809 10.0459 55.5547 10.1162C59.0273 10.1162 61.5488 12.2324 61.5488 17.0635L61.5488 28.415L56.709 28.415L56.709 17.7725C56.709 15.3516 55.7676 14.1973 53.5801 14.1973C53.1172 14.1572 52.6523 14.209 52.209 14.3486C51.7676 14.4893 51.3574 14.7148 51.002 15.0146C50.6465 15.3135 50.3555 15.6797 50.1426 16.0928C49.9297 16.5049 49.8008 16.9551 49.7617 17.418C49.7363 17.6328 49.7363 17.8506 49.7617 18.0654L49.7617 28.375L44.8711 28.375L44.8711 10.5312Z" fill="#FFFFFF" fill-opacity="1.000000" fill-rule="nonzero"/>
		<path id="i" d="M35.4121 6.04492C35.3945 5.55664 35.5215 5.07324 35.7793 4.65723C36.0352 4.24121 36.4102 3.91113 36.8555 3.70801C37.2988 3.50488 37.7949 3.4375 38.2773 3.5166C38.7598 3.59473 39.209 3.81445 39.5664 4.14844C39.9238 4.48145 40.1738 4.91406 40.2871 5.38965C40.3984 5.86621 40.3672 6.36426 40.1953 6.82227C40.0234 7.28027 39.7188 7.67676 39.3223 7.96191C38.9258 8.24707 38.4531 8.4082 37.9629 8.4248L37.873 8.4248C37.5684 8.44434 37.2656 8.40332 36.9785 8.30469C36.6895 8.20605 36.4258 8.05176 36.1973 7.85059C35.9688 7.64844 35.7832 7.4043 35.6504 7.13086C35.5176 6.8584 35.4395 6.56152 35.4219 6.25781C35.4141 6.1875 35.4102 6.11621 35.4121 6.04492ZM35.4121 10.5312L40.3633 10.5312L40.3633 28.374L35.4316 28.374L35.4121 10.5312Z" fill="#FFFFFF" fill-opacity="1.000000" fill-rule="nonzero"/>
		<path id="F" d="M16.75 3.99023L32.4062 3.99023L32.4062 8.31445L22.2793 8.31445L22.2793 14.7646L30.2988 14.7646L30.2988 18.9268L22.2695 18.9268L22.2695 28.375L16.75 28.375L16.75 3.99023Z" fill="#FFFFFF" fill-opacity="1.000000" fill-rule="nonzero"/>
		<path id="{" d="M7.30078 11.9697C7.30078 13.499 7.30078 15.3623 5.19531 16.1211C7.35156 16.8604 7.30078 18.4307 7.30078 20.0713L7.30078 26.1465C7.30078 27.3008 7.76758 28 8.59766 28.1719C8.7793 28.2334 8.97266 28.2607 9.16406 28.2529L11.1895 28.2529L11.1895 32.3037L7.84766 32.3037C4.2832 32.3037 2.31836 30.2783 2.31836 26.5215L2.31836 19.332C2.29297 18.9629 2.13086 18.6162 1.86328 18.3613C1.5957 18.1064 1.24023 17.9609 0.871094 17.9541L0 17.9541L0 14.4004L0.871094 14.4004C1.24805 14.3945 1.60938 14.2451 1.87891 13.9814C2.14844 13.7168 2.30664 13.3594 2.31836 12.9824L2.31836 5.69141C2.31836 1.99512 4.24219 0 7.84766 0L11.2207 0L11.2207 3.99023L9.19531 3.99023C9.00195 3.99023 8.81055 4.02148 8.62695 4.08105C7.79688 4.29395 7.33203 4.98242 7.33203 6.10645L7.30078 11.9697Z" fill="#FFFFFF" fill-opacity="1.000000" fill-rule="nonzero"/>
	</g>
</svg>
