<svg width="160.000000" height="32.405273" viewBox="0 0 160 32.4053" fill="none" xmlns="http://www.w3.org/2000/svg" xmlns:xlink="http://www.w3.org/1999/xlink">
	<desc>
			Created with Pixso.
	</desc>
	<defs>
		<clipPath id="clip3_291">
			<rect id="Logo" width="160.000000" height="32.405064" fill="white" fill-opacity="0"/>
		</clipPath>
	</defs>
	<rect id="Logo" width="160.000000" height="32.405064" fill="#FFFFFF" fill-opacity="0"/>
	<g clip-path="url(#clip3_291)">
		<path id="t" d="M159.716 24.749L159.716 28.709L156.395 28.709C152.851 28.5977 150.957 26.6836 150.957 23.0889L150.957 14.0459L148.638 14.0459L148.638 10.5723L150.957 10.5723L150.957 6.68359L155.858 6.68359L155.858 10.5312L159.604 10.5312L159.604 13.9951L155.858 13.9951L155.858 22.6025C155.858 23.7676 156.091 24.6992 157.883 24.6992L159.716 24.749Z" fill="#FFFFFF" fill-opacity="1.000000" fill-rule="nonzero"/>
		<path id="e" d="M129.104 19.6748L129.104 19.4121C129.051 18.2471 129.229 17.084 129.626 15.9873C130.023 14.8916 130.634 13.8848 131.421 13.0244C132.208 12.165 133.157 11.4688 134.215 10.9766C135.271 10.4844 136.415 10.2061 137.58 10.1562C137.812 10.1562 138.056 10.1562 138.289 10.1562C142.917 10.1562 146.978 12.8496 146.978 19.2705L146.978 20.6377L134.116 20.6377C134.248 23.5938 135.849 25.2646 138.542 25.2646C140.861 25.2646 141.944 24.2529 142.259 22.7744L146.886 22.7744C146.319 26.6318 143.24 28.7793 138.37 28.7793C133.022 28.7383 129.104 25.3564 129.104 19.6748ZM142.157 17.5381C141.985 14.8447 140.628 13.5488 138.269 13.5488C135.909 13.5488 134.552 15.0068 134.218 17.5381L142.157 17.5381Z" fill="#FFFFFF" fill-opacity="1.000000" fill-rule="nonzero"/>
		<path id="e" d="M109.093 19.6748L109.093 19.4121C109.04 18.249 109.217 17.0869 109.613 15.9922C110.01 14.8975 110.617 13.8916 111.403 13.0322C112.188 12.1719 113.135 11.4756 114.189 10.9824C115.244 10.4893 116.386 10.208 117.549 10.1562C117.782 10.1562 118.024 10.1562 118.258 10.1562C122.886 10.1562 126.956 12.8496 126.956 19.2705L126.956 20.6377L114.105 20.6377C114.237 23.5938 115.838 25.2646 118.531 25.2646C120.851 25.2646 121.934 24.2529 122.248 22.7744L126.875 22.7744C126.298 26.6318 123.22 28.7793 118.349 28.7793C113.012 28.7383 109.093 25.3564 109.093 19.6748ZM122.146 17.5381C121.975 14.8447 120.617 13.5488 118.258 13.5488C115.898 13.5488 114.582 15.0479 114.207 17.5283L122.146 17.5381Z" fill="#FFFFFF" fill-opacity="1.000000" fill-rule="nonzero"/>
		<path id="w" d="M81.0127 10.5312L86.1973 10.5312L89.3672 22.541L92.8408 10.5312L96.8916 10.5312L100.03 22.541L103.372 10.5312L108.121 10.5312L102.491 28.374L97.6309 28.374L94.5928 17.1738L91.3418 28.374L86.4199 28.374L81.0127 10.5312Z" fill="#FFFFFF" fill-opacity="1.000000" fill-rule="nonzero"/>
		<path id="s" d="M64.5371 22.7646L69.165 22.7646C69.3779 24.374 70.1777 25.2959 72.3047 25.2959C74.208 25.2959 75.0889 24.5771 75.0889 23.3516C75.0889 22.126 74.0762 21.6104 71.4844 21.2451C66.7344 20.5264 64.9014 19.1592 64.9014 15.6758C64.9014 11.959 68.3047 10.1162 71.9902 10.1162C75.9502 10.1162 78.9375 11.5537 79.3623 15.6553L74.7949 15.6553C74.7666 15.3389 74.6748 15.0303 74.5254 14.749C74.377 14.4678 74.1738 14.2188 73.9277 14.0156C73.6816 13.8135 73.3984 13.6621 73.0938 13.5693C72.7891 13.4775 72.4688 13.4463 72.1523 13.4785L72 13.4785C70.4004 13.4785 69.4688 14.2275 69.4688 15.3213C69.4688 16.415 70.3291 16.8906 72.9424 17.2656C77.3779 17.9336 79.8584 19.0576 79.8584 22.876C79.8584 26.6934 77.0537 28.7393 72.3545 28.7393C67.6562 28.7393 64.6689 26.6221 64.5371 22.7646Z" fill="#FFFFFF" fill-opacity="1.000000" fill-rule="nonzero"/>
		<path id="n" d="M44.8711 10.5312L49.7725 10.5312L49.7725 13.3564C50.3252 12.3203 51.1631 11.4629 52.1885 10.8887C53.2129 10.3145 54.3818 10.0459 55.5547 10.1162C59.0283 10.1162 61.5498 12.2324 61.5498 17.0635L61.5498 28.415L56.709 28.415L56.709 17.7725C56.709 15.3516 55.7676 14.1973 53.5801 14.1973C53.1172 14.1572 52.6523 14.209 52.21 14.3486C51.7676 14.4893 51.3564 14.7148 51.002 15.0146C50.6475 15.3135 50.3555 15.6797 50.1426 16.0928C49.9297 16.5049 49.8008 16.9551 49.7627 17.418C49.7373 17.6328 49.7373 17.8506 49.7627 18.0654L49.7627 28.375L44.8711 28.375L44.8711 10.5312Z" fill="#FFFFFF" fill-opacity="1.000000" fill-rule="nonzero"/>
		<path id="i" d="M35.4131 6.04492C35.3945 5.55664 35.5225 5.07324 35.7793 4.65723C36.0361 4.24121 36.4111 3.91113 36.8555 3.70801C37.3008 3.50488 37.7959 3.4375 38.2783 3.5166C38.7607 3.59473 39.21 3.81445 39.5674 4.14844C39.9248 4.48145 40.1758 4.91406 40.2871 5.38965C40.3994 5.86621 40.3672 6.36426 40.1953 6.82227C40.0244 7.28027 39.7207 7.67676 39.3232 7.96191C38.9268 8.24707 38.4531 8.4082 37.9648 8.4248L37.873 8.4248C37.5703 8.44434 37.2656 8.40332 36.9785 8.30469C36.6914 8.20605 36.4258 8.05176 36.1982 7.85059C35.9707 7.64844 35.7852 7.4043 35.6514 7.13086C35.5186 6.8584 35.4414 6.56152 35.4229 6.25781C35.4141 6.1875 35.4111 6.11621 35.4131 6.04492ZM35.4131 10.5312L40.3643 10.5312L40.3643 28.374L35.4326 28.374L35.4131 10.5312Z" fill="#FFFFFF" fill-opacity="1.000000" fill-rule="nonzero"/>
		<path id="F" d="M16.749 3.99023L32.4043 3.99023L32.4043 8.31445L22.2783 8.31445L22.2783 14.7646L30.2988 14.7646L30.2988 18.9268L22.2676 18.9268L22.2676 28.375L16.749 28.375L16.749 3.99023Z" fill="#FFFFFF" fill-opacity="1.000000" fill-rule="nonzero"/>
		<path id="{" d="M7.30078 11.9697C7.30078 13.499 7.30078 15.3623 5.19531 16.1211C7.35156 16.8604 7.30078 18.4307 7.30078 20.0713L7.30078 26.1465C7.30078 27.3008 7.7666 28 8.59766 28.1719C8.78027 28.2334 8.97168 28.2607 9.16504 28.2529L11.1895 28.2529L11.1895 32.3037L7.84766 32.3037C4.2832 32.3037 2.31934 30.2783 2.31934 26.5215L2.31934 19.332C2.29395 18.9629 2.13086 18.6162 1.86328 18.3613C1.59473 18.1064 1.24121 17.9609 0.871094 17.9541L0 17.9541L0 14.4004L0.871094 14.4004C1.24805 14.3945 1.60938 14.2451 1.87891 13.9814C2.14844 13.7168 2.30566 13.3594 2.31934 12.9824L2.31934 5.69141C2.31934 1.99512 4.24316 0 7.84766 0L11.2207 0L11.2207 3.99023L9.19531 3.99023C9.00195 3.99023 8.81055 4.02148 8.62793 4.08105C7.79785 4.29395 7.33203 4.98242 7.33203 6.10645L7.30078 11.9697Z" fill="#FFFFFF" fill-opacity="1.000000" fill-rule="nonzero"/>
	</g>
</svg>
