<svg width="160.000000" height="32.405090" viewBox="0 0 160 32.4051" fill="none" xmlns="http://www.w3.org/2000/svg" xmlns:xlink="http://www.w3.org/1999/xlink">
	<desc>
			Created with Pixso.
	</desc>
	<defs>
		<clipPath id="clip1401_1794">
			<rect id="Logo" width="160.000000" height="32.405064" fill="white" fill-opacity="0"/>
		</clipPath>
	</defs>
	<rect id="Logo" width="160.000000" height="32.405064" fill="#FFFFFF" fill-opacity="0"/>
	<g clip-path="url(#clip1401_1794)">
		<path id="t" d="M159.717 24.7494L159.717 28.7089L156.395 28.7089C152.851 28.5975 150.957 26.6836 150.957 23.0886L150.957 14.0456L148.638 14.0456L148.638 10.5722L150.957 10.5722L150.957 6.68359L155.858 6.68359L155.858 10.5317L159.605 10.5317L159.605 13.995L155.858 13.995L155.858 22.6026C155.858 23.7672 156.091 24.6988 157.884 24.6988L159.717 24.7494Z" fill="#FFFFFF" fill-opacity="1.000000" fill-rule="nonzero"/>
		<path id="e" d="M129.104 19.676L129.104 19.4127C129.051 18.248 129.228 17.0843 129.626 15.9882C130.023 14.8922 130.633 13.8854 131.421 13.0256C132.208 12.1657 133.158 11.4697 134.214 10.9775C135.271 10.4852 136.415 10.2064 137.58 10.157C137.813 10.157 138.056 10.157 138.289 10.157C142.917 10.157 146.978 12.8506 146.978 19.2709L146.978 20.638L134.117 20.638C134.248 23.595 135.848 25.2659 138.542 25.2659C140.861 25.2659 141.944 24.2532 142.258 22.7747L146.886 22.7747C146.319 26.6329 143.241 28.7798 138.37 28.7798C133.023 28.7393 129.104 25.357 129.104 19.676ZM142.157 17.5392C141.985 14.8456 140.628 13.5494 138.269 13.5494C135.909 13.5494 134.552 15.0076 134.218 17.5392L142.157 17.5392Z" fill="#FFFFFF" fill-opacity="1.000000" fill-rule="nonzero"/>
		<path id="e" d="M109.094 19.676L109.094 19.4127C109.041 18.2496 109.217 17.0875 109.614 15.9927C110.01 14.898 110.618 13.8921 111.403 13.0325C112.188 12.1729 113.136 11.4765 114.19 10.9831C115.245 10.4897 116.386 10.209 117.549 10.157C117.782 10.157 118.025 10.157 118.258 10.157C122.886 10.157 126.957 12.8506 126.957 19.2709L126.957 20.638L114.106 20.638C114.238 23.595 115.838 25.2659 118.532 25.2659C120.851 25.2659 121.934 24.2532 122.248 22.7747L126.876 22.7747C126.299 26.6329 123.22 28.7798 118.35 28.7798C113.013 28.7393 109.094 25.357 109.094 19.676ZM122.147 17.5392C121.975 14.8456 120.618 13.5494 118.258 13.5494C115.899 13.5494 114.583 15.0481 114.208 17.5291L122.147 17.5392Z" fill="#FFFFFF" fill-opacity="1.000000" fill-rule="nonzero"/>
		<path id="w" d="M81.0127 10.5315L86.1973 10.5315L89.3672 22.5416L92.8403 10.5315L96.8911 10.5315L100.03 22.5416L103.372 10.5315L108.122 10.5315L102.491 28.3745L97.6304 28.3745L94.5923 17.1746L91.3418 28.3745L86.4204 28.3745L81.0127 10.5315Z" fill="#FFFFFF" fill-opacity="1.000000" fill-rule="nonzero"/>
		<path id="s" d="M64.5366 22.7645L69.1646 22.7645C69.377 24.3747 70.1772 25.2962 72.3037 25.2962C74.2075 25.2962 75.0884 24.5772 75.0884 23.3519C75.0884 22.1266 74.0757 21.6101 71.4834 21.2455C66.7339 20.5266 64.9014 19.1595 64.9014 15.676C64.9014 11.9595 68.3037 10.1165 71.9897 10.1165C75.9492 10.1165 78.9365 11.5544 79.3618 15.6557L74.7949 15.6557C74.7656 15.3386 74.6738 15.0305 74.5249 14.7491C74.376 14.4677 74.1729 14.2185 73.9272 14.0161C73.6816 13.8137 73.3979 13.6619 73.0933 13.5696C72.7886 13.4774 72.4688 13.4464 72.1519 13.4785L72 13.4785C70.3999 13.4785 69.4683 14.2278 69.4683 15.3215C69.4683 16.4152 70.3291 16.8911 72.9419 17.2658C77.377 17.9342 79.8579 19.0582 79.8579 22.876C79.8579 26.6937 77.0532 28.7393 72.3545 28.7393C67.6558 28.7393 64.6685 26.6228 64.5366 22.7645Z" fill="#FFFFFF" fill-opacity="1.000000" fill-rule="nonzero"/>
		<path id="n" d="M44.8711 10.5316L49.7725 10.5316L49.7725 13.3569C50.3247 12.3199 51.1636 11.4633 52.1885 10.8889C53.2134 10.3144 54.3818 10.0463 55.5547 10.1164C59.0278 10.1164 61.5498 12.2328 61.5498 17.0632L61.5498 28.4152L56.709 28.4152L56.709 17.7721C56.709 15.3519 55.7671 14.1974 53.5801 14.1974C53.1177 14.1572 52.6519 14.2086 52.2095 14.3488C51.7671 14.489 51.3569 14.7153 51.002 15.0145C50.6475 15.3137 50.3555 15.68 50.1426 16.0924C49.9297 16.5048 49.8003 16.9552 49.7622 17.4177C49.7368 17.6329 49.7368 17.8505 49.7622 18.0658L49.7622 28.3746L44.8711 28.3746L44.8711 10.5316Z" fill="#FFFFFF" fill-opacity="1.000000" fill-rule="nonzero"/>
		<path id="i" d="M35.4126 6.04553C35.395 5.55682 35.5225 5.07385 35.7793 4.65778C36.0366 4.2417 36.4111 3.91119 36.856 3.70807C37.3008 3.50494 37.7959 3.43842 38.2783 3.51685C38.7612 3.59528 39.2095 3.81519 39.5674 4.14868C39.9248 4.48218 40.1753 4.91431 40.2871 5.39032C40.3994 5.86633 40.3672 6.36487 40.1958 6.82275C40.0244 7.2807 39.7207 7.67737 39.3232 7.96265C38.9263 8.24792 38.4536 8.40887 37.9648 8.42523L37.8735 8.42523C37.5703 8.44446 37.2661 8.40356 36.9785 8.30499C36.6909 8.20636 36.4258 8.05194 36.1982 7.85059C35.9707 7.64929 35.7847 7.40497 35.6519 7.13171C35.5186 6.8584 35.4409 6.56158 35.4229 6.25818C35.4146 6.18762 35.4111 6.11652 35.4126 6.04553ZM35.4126 10.5316L40.3647 10.5316L40.3647 28.3746L35.4331 28.3746L35.4126 10.5316Z" fill="#FFFFFF" fill-opacity="1.000000" fill-rule="nonzero"/>
		<path id="F" d="M16.7495 3.98975L32.4053 3.98975L32.4053 8.31378L22.2788 8.31378L22.2788 14.7644L30.2988 14.7644L30.2988 18.9265L22.2686 18.9265L22.2686 28.3746L16.7495 28.3746L16.7495 3.98975Z" fill="#FFFFFF" fill-opacity="1.000000" fill-rule="nonzero"/>
		<path id="{" d="M7.30127 11.9696C7.30127 13.4987 7.30127 15.362 5.19482 16.1215C7.35205 16.8608 7.30127 18.4304 7.30127 20.0709L7.30127 26.1469C7.30127 27.3013 7.76709 28 8.59766 28.1721C8.77979 28.2337 8.97217 28.2612 9.16455 28.2532L11.1899 28.2532L11.1899 32.3038L7.84814 32.3038C4.28369 32.3038 2.31885 30.2785 2.31885 26.5215L2.31885 19.3317C2.29395 18.9625 2.13086 18.6163 1.86279 18.3613C1.59473 18.1064 1.24072 17.9612 0.871094 17.9544L0 17.9544L0 14.4L0.871094 14.4C1.24805 14.395 1.60889 14.245 1.87891 13.981C2.14844 13.717 2.30615 13.3594 2.31885 12.9823L2.31885 5.69116C2.31885 1.99493 4.24316 0 7.84814 0L11.2202 0L11.2202 3.98987L9.19482 3.98987C9.00244 3.99042 8.81104 4.02118 8.62793 4.08099C7.79736 4.2937 7.33154 4.9823 7.33154 6.10632L7.30127 11.9696Z" fill="#FFFFFF" fill-opacity="1.000000" fill-rule="nonzero"/>
	</g>
</svg>
