<svg width="50.000000" height="50.000000" viewBox="0 0 50 50" fill="none" xmlns="http://www.w3.org/2000/svg" xmlns:xlink="http://www.w3.org/1999/xlink">
	<desc>
			Created with Pixso.
	</desc>
	<defs/>
	<rect id="Rectangle 1242" rx="8.000000" width="50.000000" height="50.000000" fill="#2405F2" fill-opacity="1.000000"/>
	<mask id="mask706_689" mask-type="alpha" maskUnits="userSpaceOnUse" x="0.000000" y="0.000000" width="50.000000" height="50.000000">
		<rect id="Rectangle 1244" rx="8.000000" width="50.000000" height="50.000000" fill="#5C5E84" fill-opacity="1.000000"/>
	</mask>
	<g mask="url(#mask706_689)">
		<rect id="Rectangle 1243" x="-26.000000" y="27.000000" rx="8.000000" width="50.000000" height="50.000000" fill="#FCD980" fill-opacity="1.000000"/>
	</g>
	<g mask="url(#mask706_689)">
		<rect id="Rectangle 1245" x="8.000000" y="-9.000000" rx="8.000000" width="50.000000" height="50.000000" fill="#5239FA" fill-opacity="1.000000"/>
	</g>
	<path id="01" d="M16.0811 24.2676Q16.0811 21.1519 17.1313 19.3984Q18.186 17.645 20.7612 17.645Q23.332 17.645 24.3867 19.3984Q25.4414 21.1519 25.4414 24.2676Q25.4414 27.4185 24.3867 29.1938Q23.332 30.9648 20.7612 30.9648Q18.186 30.9648 17.1313 29.1938Q16.0811 27.4185 16.0811 24.2676ZM23.4243 24.2676Q23.4243 22.8086 23.2354 21.8022Q23.0464 20.7959 22.4707 20.1587Q21.895 19.5171 20.7612 19.5171Q19.6274 19.5171 19.0518 20.1587Q18.4761 20.7959 18.2871 21.8022Q18.0981 22.8086 18.0981 24.2676Q18.0981 25.7793 18.2739 26.8076Q18.4541 27.8315 19.0386 28.4644Q19.6274 29.0928 20.7612 29.0928Q21.895 29.0928 22.4795 28.4644Q23.064 27.8315 23.2441 26.8076Q23.4243 25.7793 23.4243 24.2676ZM27.3466 19.75L27.3466 17.8779L31.0907 17.8779L31.0907 31L29.0209 31L29.0209 19.75L27.3466 19.75Z" fill="#FFFFFF" fill-opacity="1.000000" fill-rule="evenodd"/>
</svg>
