<svg width="16.000000" height="15.570312" viewBox="0 0 16 15.5703" fill="none" xmlns="http://www.w3.org/2000/svg" xmlns:xlink="http://www.w3.org/1999/xlink">
	<desc>
			Created with Pixso.
	</desc>
	<defs>
		<clipPath id="clip714_469">
			<rect id="Twitter / Negative" width="16.000000" height="15.570466" fill="white" fill-opacity="0"/>
		</clipPath>
	</defs>
	<rect id="Twitter / Negative" width="16.000000" height="15.570466" fill="#FFFFFF" fill-opacity="0"/>
	<g clip-path="url(#clip714_469)">
		<path id="Vector" d="M5.0332 14.1104C11.0693 14.1104 14.3721 9.24219 14.3721 5.02246C14.3721 4.88574 14.3691 4.74609 14.3633 4.6084C15.0049 4.15625 15.5596 3.59668 16 2.95508C15.4014 3.21387 14.7666 3.38379 14.1162 3.45703C14.8008 3.05762 15.3135 2.42969 15.5596 1.69043C14.915 2.06152 14.21 2.32422 13.4756 2.46582C12.9805 1.95312 12.3262 1.61426 11.6133 1.50098C10.9004 1.3877 10.1689 1.50586 9.53223 1.83691C8.89453 2.16895 8.3877 2.69531 8.08887 3.33496C7.79102 3.97559 7.7168 4.69336 7.87988 5.37793C6.5752 5.31445 5.29883 4.98438 4.13379 4.41016C2.96777 3.83594 1.93945 3.0293 1.11523 2.04297C0.696289 2.74609 0.568359 3.57812 0.756836 4.37012C0.945312 5.16211 1.43652 5.85352 2.13086 6.30566C1.60938 6.29004 1.09961 6.15332 0.643555 5.90723L0.643555 5.94727C0.643555 6.68457 0.905273 7.40039 1.38574 7.9707C1.86523 8.54199 2.53418 8.93359 3.27734 9.0791C2.79492 9.20801 2.28809 9.22656 1.79688 9.13379C2.00586 9.76855 2.41406 10.3232 2.96387 10.7217C3.51367 11.1191 4.17676 11.3408 4.86133 11.3535C3.69922 12.2432 2.2627 12.7246 0.78418 12.7227C0.522461 12.7217 0.260742 12.7061 0 12.6758C1.50195 13.6133 3.24902 14.1113 5.0332 14.1104Z" fill="#282938" fill-opacity="1.000000" fill-rule="nonzero"/>
	</g>
</svg>
