<svg width="16.000000" height="13.000000" viewBox="0 0 16 13" fill="none" xmlns="http://www.w3.org/2000/svg" xmlns:xlink="http://www.w3.org/1999/xlink">
	<desc>
			Created with Pixso.
	</desc>
	<defs/>
	<path id="Vector" d="M5.0332 13C11.0693 13 14.3721 7.99805 14.3721 3.66211C14.3721 3.52148 14.3691 3.37695 14.3633 3.23633C15.0049 2.77148 15.5596 2.19727 16 1.53711C15.4014 1.80273 14.7666 1.97656 14.1162 2.05273C14.8008 1.64258 15.3135 0.998047 15.5596 0.238281C14.915 0.619141 14.21 0.888672 13.4756 1.03516C12.9805 0.507812 12.3262 0.160156 11.6133 0.0429688C10.9004 -0.0742188 10.1689 0.0488281 9.53223 0.388672C8.89453 0.728516 8.3877 1.26953 8.08887 1.92773C7.79102 2.58594 7.7168 3.32422 7.87988 4.02734C6.5752 3.96094 5.29883 3.62305 4.13379 3.0332C2.96777 2.44141 1.93945 1.61328 1.11523 0.599609C0.696289 1.32227 0.568359 2.17773 0.756836 2.99219C0.945312 3.80469 1.43652 4.51562 2.13086 4.98047C1.60938 4.96484 1.09961 4.82422 0.643555 4.57031L0.643555 4.61133C0.643555 5.36914 0.905273 6.10547 1.38574 6.69141C1.86523 7.2793 2.53418 7.68164 3.27734 7.83008C2.79492 7.96289 2.28809 7.98242 1.79688 7.88672C2.00586 8.53906 2.41406 9.10938 2.96387 9.51758C3.51367 9.92773 4.17676 10.1543 4.86133 10.168C3.69922 11.082 2.2627 11.5762 0.78418 11.5742C0.522461 11.5742 0.260742 11.5586 0 11.5254C1.50195 12.4902 3.24902 13.002 5.0332 13Z" fill="#FFFFFF" fill-opacity="1.000000" fill-rule="nonzero"/>
</svg>
